
      <svg xmlns="http://www.w3.org/2000/svg" version="1.1" width="1857" height="1009" style="display: block;"><polygon stroke-linejoin="round" stroke-miterlimit="1" stroke-width="1" points="929.5,1114.5 690.5,1089.5 -29.5,1114.5" style="fill:#4e8096;stroke:#4e8096;"></polygon><polygon stroke-linejoin="round" stroke-miterlimit="1" stroke-width="1" points="929.5,-108.5 685.5,-108.5 789.5,-106.5" style="fill:#a7f7ff;stroke:#a7f7ff;"></polygon><polygon stroke-linejoin="round" stroke-miterlimit="1" stroke-width="1" points="1767.5,1114.5 1464.5,1066.5 1222.5,1079.5" style="fill:#629db2;stroke:#629db2;"></polygon><polygon stroke-linejoin="round" stroke-miterlimit="1" stroke-width="1" points="1767.5,1114.5 1222.5,1079.5 1021.5,1114.5" style="fill:#5a91a6;stroke:#5a91a6;"></polygon><polygon stroke-linejoin="round" stroke-miterlimit="1" stroke-width="1" points="1939.5,912.5 1917.5,638.5 1817.5,716.5" style="fill:#558a9f;stroke:#558a9f;"></polygon><polygon stroke-linejoin="round" stroke-miterlimit="1" stroke-width="1" points="2001.5,947.5 1939.5,912.5 1869.5,1114.5" style="fill:#578da2;stroke:#578da2;"></polygon><polygon stroke-linejoin="round" stroke-miterlimit="1" stroke-width="1" points="2001.5,947.5 1917.5,638.5 1939.5,912.5" style="fill:#4d8094;stroke:#4d8094;"></polygon><polygon stroke-linejoin="round" stroke-miterlimit="1" stroke-width="1" points="2014.5,257.5 1969.5,114.5 1891.5,209.5" style="fill:#4c7f93;stroke:#4c7f93;"></polygon><polygon stroke-linejoin="round" stroke-miterlimit="1" stroke-width="1" points="2014.5,260.5 2014.5,257.5 1891.5,209.5" style="fill:#3d697d;stroke:#3d697d;"></polygon><polygon stroke-linejoin="round" stroke-miterlimit="1" stroke-width="1" points="2014.5,-10.5 1866.5,77.5 1969.5,114.5" style="fill:#47778b;stroke:#47778b;"></polygon><polygon stroke-linejoin="round" stroke-miterlimit="1" stroke-width="1" points="2014.5,-10.5 1781.5,-66.5 1866.5,77.5" style="fill:#4f8397;stroke:#4f8397;"></polygon><polygon stroke-linejoin="round" stroke-miterlimit="1" stroke-width="1" points="2014.5,-10.5 1969.5,114.5 2014.5,257.5" style="fill:#639db2;stroke:#639db2;"></polygon><polygon stroke-linejoin="round" stroke-miterlimit="1" stroke-width="1" points="2014.5,515.5 1917.5,638.5 2001.5,947.5" style="fill:#427083;stroke:#427083;"></polygon><polygon stroke-linejoin="round" stroke-miterlimit="1" stroke-width="1" points="2014.5,515.5 1949.5,476.5 1917.5,638.5" style="fill:#3e6a7e;stroke:#3e6a7e;"></polygon><polygon stroke-linejoin="round" stroke-miterlimit="1" stroke-width="1" points="2014.5,324.5 2014.5,260.5 1891.5,209.5" style="fill:#4c7f93;stroke:#4c7f93;"></polygon><polygon stroke-linejoin="round" stroke-miterlimit="1" stroke-width="1" points="2014.5,324.5 1891.5,209.5 1949.5,476.5" style="fill:#497a8e;stroke:#497a8e;"></polygon><polygon stroke-linejoin="round" stroke-miterlimit="1" stroke-width="1" points="2014.5,1085.5 1869.5,1114.5 2014.5,1092.5" style="fill:#7dc1d8;stroke:#7dc1d8;"></polygon><polygon stroke-linejoin="round" stroke-miterlimit="1" stroke-width="1" points="2014.5,1085.5 2001.5,947.5 1869.5,1114.5" style="fill:#3e6c7f;stroke:#3e6c7f;"></polygon><polygon stroke-linejoin="round" stroke-miterlimit="1" stroke-width="1" points="2014.5,1085.5 2014.5,515.5 2001.5,947.5" style="fill:#3d697d;stroke:#3d697d;"></polygon><polygon stroke-linejoin="round" stroke-miterlimit="1" stroke-width="1" points="2014.5,1114.5 2014.5,1092.5 1869.5,1114.5" style="fill:#427184;stroke:#427184;"></polygon><polygon stroke-linejoin="round" stroke-miterlimit="1" stroke-width="1" points="2014.5,503.5 2014.5,324.5 1949.5,476.5" style="fill:#5b93a8;stroke:#5b93a8;"></polygon><polygon stroke-linejoin="round" stroke-miterlimit="1" stroke-width="1" points="2014.5,503.5 1949.5,476.5 2014.5,515.5" style="fill:#5b92a8;stroke:#5b92a8;"></polygon><polygon stroke-linejoin="round" stroke-miterlimit="1" stroke-width="1" points="2014.5,-108.5 1781.5,-66.5 2014.5,-10.5" style="fill:#4d8093;stroke:#4d8093;"></polygon><polygon stroke-linejoin="round" stroke-miterlimit="1" stroke-width="1" points="2014.5,-108.5 1738.5,-108.5 1781.5,-66.5" style="fill:#4e8295;stroke:#4e8295;"></polygon><polygon stroke-linejoin="round" stroke-miterlimit="1" stroke-width="1" points="1939.5,912.5 1866.5,1114.5 1869.5,1114.5" style="fill:#649eb5;stroke:#649eb5;"></polygon><polygon stroke-linejoin="round" stroke-miterlimit="1" stroke-width="1" points="1949.5,476.5 1891.5,209.5 1682.5,459.5" style="fill:#4c7f92;stroke:#4c7f92;"></polygon><polygon stroke-linejoin="round" stroke-miterlimit="1" stroke-width="1" points="1969.5,114.5 1866.5,77.5 1891.5,209.5" style="fill:#4c7e92;stroke:#4c7e92;"></polygon><polygon stroke-linejoin="round" stroke-miterlimit="1" stroke-width="1" points="1826.5,1114.5 1727.5,905.5 1821.5,1114.5" style="fill:#679fb9;stroke:#679fb9;"></polygon><polygon stroke-linejoin="round" stroke-miterlimit="1" stroke-width="1" points="1917.5,638.5 1682.5,459.5 1664.5,559.5" style="fill:#4c7f93;stroke:#4c7f93;"></polygon><polygon stroke-linejoin="round" stroke-miterlimit="1" stroke-width="1" points="1939.5,912.5 1826.5,1114.5 1866.5,1114.5" style="fill:#66a1b8;stroke:#66a1b8;"></polygon><polygon stroke-linejoin="round" stroke-miterlimit="1" stroke-width="1" points="1939.5,912.5 1727.5,905.5 1826.5,1114.5" style="fill:#47778b;stroke:#47778b;"></polygon><polygon stroke-linejoin="round" stroke-miterlimit="1" stroke-width="1" points="1939.5,912.5 1817.5,716.5 1727.5,905.5" style="fill:#4a7c90;stroke:#4a7c90;"></polygon><polygon stroke-linejoin="round" stroke-miterlimit="1" stroke-width="1" points="1949.5,476.5 1682.5,459.5 1917.5,638.5" style="fill:#4e8195;stroke:#4e8195;"></polygon><polygon stroke-linejoin="round" stroke-miterlimit="1" stroke-width="1" points="1917.5,638.5 1664.5,559.5 1817.5,716.5" style="fill:#51869a;stroke:#51869a;"></polygon><polygon stroke-linejoin="round" stroke-miterlimit="1" stroke-width="1" points="1821.5,1114.5 1727.5,905.5 1767.5,1114.5" style="fill:#416f82;stroke:#416f82;"></polygon><polygon stroke-linejoin="round" stroke-miterlimit="1" stroke-width="1" points="1891.5,209.5 1657.5,139.5 1607.5,188.5" style="fill:#588fa3;stroke:#588fa3;"></polygon><polygon stroke-linejoin="round" stroke-miterlimit="1" stroke-width="1" points="1891.5,209.5 1578.5,258.5 1682.5,459.5" style="fill:#53889b;stroke:#53889b;"></polygon><polygon stroke-linejoin="round" stroke-miterlimit="1" stroke-width="1" points="1891.5,209.5 1607.5,188.5 1578.5,258.5" style="fill:#588fa2;stroke:#588fa2;"></polygon><polygon stroke-linejoin="round" stroke-miterlimit="1" stroke-width="1" points="1891.5,209.5 1866.5,77.5 1657.5,139.5" style="fill:#4b7e91;stroke:#4b7e91;"></polygon><polygon stroke-linejoin="round" stroke-miterlimit="1" stroke-width="1" points="1866.5,77.5 1781.5,-66.5 1657.5,139.5" style="fill:#4e8295;stroke:#4e8295;"></polygon><polygon stroke-linejoin="round" stroke-miterlimit="1" stroke-width="1" points="1464.5,1066.5 1275.5,1065.5 1222.5,1079.5" style="fill:#6fadc3;stroke:#6fadc3;"></polygon><polygon stroke-linejoin="round" stroke-miterlimit="1" stroke-width="1" points="1781.5,-66.5 1618.5,-3.5 1657.5,139.5" style="fill:#53899c;stroke:#53899c;"></polygon><polygon stroke-linejoin="round" stroke-miterlimit="1" stroke-width="1" points="1817.5,716.5 1664.5,559.5 1727.5,905.5" style="fill:#4e8195;stroke:#4e8195;"></polygon><polygon stroke-linejoin="round" stroke-miterlimit="1" stroke-width="1" points="1605.5,-108.5 929.5,-108.5 1237.5,9.5" style="fill:#629fb0;stroke:#629fb0;"></polygon><polygon stroke-linejoin="round" stroke-miterlimit="1" stroke-width="1" points="1664.5,559.5 1475.5,615.5 1431.5,766.5" style="fill:#568ca0;stroke:#568ca0;"></polygon><polygon stroke-linejoin="round" stroke-miterlimit="1" stroke-width="1" points="1727.5,905.5 1664.5,559.5 1431.5,766.5" style="fill:#518599;stroke:#518599;"></polygon><polygon stroke-linejoin="round" stroke-miterlimit="1" stroke-width="1" points="1767.5,1114.5 1727.5,905.5 1490.5,1016.5" style="fill:#508397;stroke:#508397;"></polygon><polygon stroke-linejoin="round" stroke-miterlimit="1" stroke-width="1" points="1781.5,-66.5 1738.5,-108.5 1683.5,-108.5" style="fill:#48798c;stroke:#48798c;"></polygon><polygon stroke-linejoin="round" stroke-miterlimit="1" stroke-width="1" points="1781.5,-66.5 1683.5,-108.5 1618.5,-3.5" style="fill:#568da0;stroke:#568da0;"></polygon><polygon stroke-linejoin="round" stroke-miterlimit="1" stroke-width="1" points="1767.5,1114.5 1490.5,1016.5 1464.5,1066.5" style="fill:#46768b;stroke:#46768b;"></polygon><polygon stroke-linejoin="round" stroke-miterlimit="1" stroke-width="1" points="1727.5,905.5 1431.5,766.5 1490.5,1016.5" style="fill:#54899d;stroke:#54899d;"></polygon><polygon stroke-linejoin="round" stroke-miterlimit="1" stroke-width="1" points="1578.5,258.5 1464.5,275.5 1398.5,370.5" style="fill:#70b2c4;stroke:#70b2c4;"></polygon><polygon stroke-linejoin="round" stroke-miterlimit="1" stroke-width="1" points="1682.5,459.5 1475.5,615.5 1664.5,559.5" style="fill:#5d96a9;stroke:#5d96a9;"></polygon><polygon stroke-linejoin="round" stroke-miterlimit="1" stroke-width="1" points="1682.5,459.5 1578.5,258.5 1398.5,370.5" style="fill:#5c95a8;stroke:#5c95a8;"></polygon><polygon stroke-linejoin="round" stroke-miterlimit="1" stroke-width="1" points="1683.5,-108.5 1605.5,-108.5 1618.5,-3.5" style="fill:#538a9c;stroke:#538a9c;"></polygon><polygon stroke-linejoin="round" stroke-miterlimit="1" stroke-width="1" points="1682.5,459.5 1378.5,492.5 1475.5,615.5" style="fill:#5890a3;stroke:#5890a3;"></polygon><polygon stroke-linejoin="round" stroke-miterlimit="1" stroke-width="1" points="1682.5,459.5 1398.5,370.5 1378.5,492.5" style="fill:#5890a2;stroke:#5890a2;"></polygon><polygon stroke-linejoin="round" stroke-miterlimit="1" stroke-width="1" points="1657.5,139.5 1618.5,-3.5 1504.5,15.5" style="fill:#578ea1;stroke:#578ea1;"></polygon><polygon stroke-linejoin="round" stroke-miterlimit="1" stroke-width="1" points="1657.5,139.5 1504.5,15.5 1607.5,188.5" style="fill:#4b7f90;stroke:#4b7f90;"></polygon><polygon stroke-linejoin="round" stroke-miterlimit="1" stroke-width="1" points="1605.5,-108.5 1237.5,9.5 1504.5,15.5" style="fill:#5b94a7;stroke:#5b94a7;"></polygon><polygon stroke-linejoin="round" stroke-miterlimit="1" stroke-width="1" points="1607.5,188.5 1504.5,15.5 1453.5,76.5" style="fill:#4e8495;stroke:#4e8495;"></polygon><polygon stroke-linejoin="round" stroke-miterlimit="1" stroke-width="1" points="1618.5,-3.5 1605.5,-108.5 1504.5,15.5" style="fill:#578fa1;stroke:#578fa1;"></polygon><polygon stroke-linejoin="round" stroke-miterlimit="1" stroke-width="1" points="1607.5,188.5 1464.5,275.5 1578.5,258.5" style="fill:#4f8596;stroke:#4f8596;"></polygon><polygon stroke-linejoin="round" stroke-miterlimit="1" stroke-width="1" points="1607.5,188.5 1453.5,76.5 1464.5,275.5" style="fill:#65a4b5;stroke:#65a4b5;"></polygon><polygon stroke-linejoin="round" stroke-miterlimit="1" stroke-width="1" points="1464.5,275.5 1453.5,76.5 1412.5,96.5" style="fill:#568f9f;stroke:#568f9f;"></polygon><polygon stroke-linejoin="round" stroke-miterlimit="1" stroke-width="1" points="1431.5,766.5 1165.5,916.5 1275.5,1065.5" style="fill:#51859a;stroke:#51859a;"></polygon><polygon stroke-linejoin="round" stroke-miterlimit="1" stroke-width="1" points="1453.5,76.5 1237.5,9.5 1412.5,96.5" style="fill:#71b6c6;stroke:#71b6c6;"></polygon><polygon stroke-linejoin="round" stroke-miterlimit="1" stroke-width="1" points="1490.5,1016.5 1431.5,766.5 1275.5,1065.5" style="fill:#4c7f93;stroke:#4c7f93;"></polygon><polygon stroke-linejoin="round" stroke-miterlimit="1" stroke-width="1" points="1504.5,15.5 1237.5,9.5 1453.5,76.5" style="fill:#5f9bab;stroke:#5f9bab;"></polygon><polygon stroke-linejoin="round" stroke-miterlimit="1" stroke-width="1" points="1464.5,275.5 1412.5,96.5 1302.5,154.5" style="fill:#6fb3c1;stroke:#6fb3c1;"></polygon><polygon stroke-linejoin="round" stroke-miterlimit="1" stroke-width="1" points="1475.5,615.5 1378.5,492.5 1345.5,601.5" style="fill:#5d97ab;stroke:#5d97ab;"></polygon><polygon stroke-linejoin="round" stroke-miterlimit="1" stroke-width="1" points="1475.5,615.5 1328.5,723.5 1431.5,766.5" style="fill:#4a7d8f;stroke:#4a7d8f;"></polygon><polygon stroke-linejoin="round" stroke-miterlimit="1" stroke-width="1" points="1475.5,615.5 1345.5,601.5 1328.5,723.5" style="fill:#53889c;stroke:#53889c;"></polygon><polygon stroke-linejoin="round" stroke-miterlimit="1" stroke-width="1" points="1490.5,1016.5 1275.5,1065.5 1464.5,1066.5" style="fill:#4d7f94;stroke:#4d7f94;"></polygon><polygon stroke-linejoin="round" stroke-miterlimit="1" stroke-width="1" points="1431.5,766.5 1328.5,723.5 1165.5,916.5" style="fill:#5c94a9;stroke:#5c94a9;"></polygon><polygon stroke-linejoin="round" stroke-miterlimit="1" stroke-width="1" points="1464.5,275.5 1302.5,154.5 1398.5,370.5" style="fill:#73b9c8;stroke:#73b9c8;"></polygon><polygon stroke-linejoin="round" stroke-miterlimit="1" stroke-width="1" points="1398.5,370.5 1302.5,154.5 1205.5,213.5" style="fill:#99f2fc;stroke:#99f2fc;"></polygon><polygon stroke-linejoin="round" stroke-miterlimit="1" stroke-width="1" points="1398.5,370.5 1205.5,213.5 1183.5,261.5" style="fill:#89dce4;stroke:#89dce4;"></polygon><polygon stroke-linejoin="round" stroke-miterlimit="1" stroke-width="1" points="1412.5,96.5 1237.5,9.5 1302.5,154.5" style="fill:#76beca;stroke:#76beca;"></polygon><polygon stroke-linejoin="round" stroke-miterlimit="1" stroke-width="1" points="1398.5,370.5 1151.5,453.5 1378.5,492.5" style="fill:#67a6b7;stroke:#67a6b7;"></polygon><polygon stroke-linejoin="round" stroke-miterlimit="1" stroke-width="1" points="1398.5,370.5 1183.5,261.5 1151.5,453.5" style="fill:#75bbca;stroke:#75bbca;"></polygon><polygon stroke-linejoin="round" stroke-miterlimit="1" stroke-width="1" points="673.5,-108.5 435.5,-108.5 615.5,-101.5" style="fill:#85c7e5;stroke:#85c7e5;"></polygon><polygon stroke-linejoin="round" stroke-miterlimit="1" stroke-width="1" points="1378.5,492.5 1151.5,453.5 1345.5,601.5" style="fill:#609cad;stroke:#609cad;"></polygon><polygon stroke-linejoin="round" stroke-miterlimit="1" stroke-width="1" points="1345.5,601.5 1127.5,605.5 1328.5,723.5" style="fill:#5a92a5;stroke:#5a92a5;"></polygon><polygon stroke-linejoin="round" stroke-miterlimit="1" stroke-width="1" points="1345.5,601.5 1151.5,453.5 1127.5,605.5" style="fill:#5991a5;stroke:#5991a5;"></polygon><polygon stroke-linejoin="round" stroke-miterlimit="1" stroke-width="1" points="1328.5,723.5 1127.5,605.5 1165.5,916.5" style="fill:#52869b;stroke:#52869b;"></polygon><polygon stroke-linejoin="round" stroke-miterlimit="1" stroke-width="1" points="1275.5,1065.5 1165.5,916.5 1222.5,1079.5" style="fill:#508698;stroke:#508698;"></polygon><polygon stroke-linejoin="round" stroke-miterlimit="1" stroke-width="1" points="1302.5,154.5 1237.5,9.5 1205.5,213.5" style="fill:#a5ffff;stroke:#a5ffff;"></polygon><polygon stroke-linejoin="round" stroke-miterlimit="1" stroke-width="1" points="1165.5,916.5 1127.5,605.5 1076.5,912.5" style="fill:#54899d;stroke:#54899d;"></polygon><polygon stroke-linejoin="round" stroke-miterlimit="1" stroke-width="1" points="1237.5,9.5 1174.5,212.5 1205.5,213.5" style="fill:#a3ffff;stroke:#a3ffff;"></polygon><polygon stroke-linejoin="round" stroke-miterlimit="1" stroke-width="1" points="1237.5,9.5 929.5,-108.5 939.5,-53.5" style="fill:#518799;stroke:#518799;"></polygon><polygon stroke-linejoin="round" stroke-miterlimit="1" stroke-width="1" points="1222.5,1079.5 1165.5,916.5 1056.5,1031.5" style="fill:#4f8196;stroke:#4f8196;"></polygon><polygon stroke-linejoin="round" stroke-miterlimit="1" stroke-width="1" points="1237.5,9.5 947.5,158.5 1174.5,212.5" style="fill:#7cc6d4;stroke:#7cc6d4;"></polygon><polygon stroke-linejoin="round" stroke-miterlimit="1" stroke-width="1" points="1237.5,9.5 939.5,-53.5 947.5,158.5" style="fill:#6aa8bc;stroke:#6aa8bc;"></polygon><polygon stroke-linejoin="round" stroke-miterlimit="1" stroke-width="1" points="1222.5,1079.5 1056.5,1031.5 1021.5,1114.5" style="fill:#52859b;stroke:#52859b;"></polygon><polygon stroke-linejoin="round" stroke-miterlimit="1" stroke-width="1" points="1205.5,213.5 1174.5,212.5 1183.5,261.5" style="fill:#a1fcff;stroke:#a1fcff;"></polygon><polygon stroke-linejoin="round" stroke-miterlimit="1" stroke-width="1" points="1076.5,912.5 1037.5,981.5 1056.5,1031.5" style="fill:#53889d;stroke:#53889d;"></polygon><polygon stroke-linejoin="round" stroke-miterlimit="1" stroke-width="1" points="1165.5,916.5 1076.5,912.5 1056.5,1031.5" style="fill:#4a7c90;stroke:#4a7c90;"></polygon><polygon stroke-linejoin="round" stroke-miterlimit="1" stroke-width="1" points="1183.5,261.5 904.5,342.5 1151.5,453.5" style="fill:#69a9ba;stroke:#69a9ba;"></polygon><polygon stroke-linejoin="round" stroke-miterlimit="1" stroke-width="1" points="1183.5,261.5 1174.5,212.5 946.5,165.5" style="fill:#7bc4d3;stroke:#7bc4d3;"></polygon><polygon stroke-linejoin="round" stroke-miterlimit="1" stroke-width="1" points="1183.5,261.5 946.5,165.5 904.5,342.5" style="fill:#69a7ba;stroke:#69a7ba;"></polygon><polygon stroke-linejoin="round" stroke-miterlimit="1" stroke-width="1" points="1127.5,605.5 782.5,659.5 1076.5,912.5" style="fill:#53889c;stroke:#53889c;"></polygon><polygon stroke-linejoin="round" stroke-miterlimit="1" stroke-width="1" points="1174.5,212.5 947.5,158.5 946.5,165.5" style="fill:#64a6b2;stroke:#64a6b2;"></polygon><polygon stroke-linejoin="round" stroke-miterlimit="1" stroke-width="1" points="690.5,1089.5 387.5,1016.5 -29.5,1114.5" style="fill:#53869c;stroke:#53869c;"></polygon><polygon stroke-linejoin="round" stroke-miterlimit="1" stroke-width="1" points="1076.5,912.5 782.5,659.5 848.5,910.5" style="fill:#5990a5;stroke:#5990a5;"></polygon><polygon stroke-linejoin="round" stroke-miterlimit="1" stroke-width="1" points="1151.5,453.5 904.5,342.5 1127.5,605.5" style="fill:#5f99ac;stroke:#5f99ac;"></polygon><polygon stroke-linejoin="round" stroke-miterlimit="1" stroke-width="1" points="1127.5,605.5 904.5,342.5 782.5,659.5" style="fill:#5b93a8;stroke:#5b93a8;"></polygon><polygon stroke-linejoin="round" stroke-miterlimit="1" stroke-width="1" points="1076.5,912.5 848.5,910.5 1037.5,981.5" style="fill:#649eb4;stroke:#649eb4;"></polygon><polygon stroke-linejoin="round" stroke-miterlimit="1" stroke-width="1" points="946.5,165.5 877.5,210.5 904.5,342.5" style="fill:#64a0b4;stroke:#64a0b4;"></polygon><polygon stroke-linejoin="round" stroke-miterlimit="1" stroke-width="1" points="1056.5,1031.5 1037.5,981.5 929.5,1114.5" style="fill:#508298;stroke:#508298;"></polygon><polygon stroke-linejoin="round" stroke-miterlimit="1" stroke-width="1" points="1056.5,1031.5 929.5,1114.5 1021.5,1114.5" style="fill:#598ea5;stroke:#598ea5;"></polygon><polygon stroke-linejoin="round" stroke-miterlimit="1" stroke-width="1" points="947.5,158.5 939.5,-53.5 902.5,-44.5" style="fill:#64a0b4;stroke:#64a0b4;"></polygon><polygon stroke-linejoin="round" stroke-miterlimit="1" stroke-width="1" points="1037.5,981.5 848.5,910.5 929.5,1114.5" style="fill:#51859a;stroke:#51859a;"></polygon><polygon stroke-linejoin="round" stroke-miterlimit="1" stroke-width="1" points="904.5,342.5 681.5,501.5 782.5,659.5" style="fill:#5d95ab;stroke:#5d95ab;"></polygon><polygon stroke-linejoin="round" stroke-miterlimit="1" stroke-width="1" points="848.5,910.5 782.5,659.5 717.5,816.5" style="fill:#4f8297;stroke:#4f8297;"></polygon><polygon stroke-linejoin="round" stroke-miterlimit="1" stroke-width="1" points="929.5,1114.5 848.5,910.5 690.5,1089.5" style="fill:#51859a;stroke:#51859a;"></polygon><polygon stroke-linejoin="round" stroke-miterlimit="1" stroke-width="1" points="939.5,-53.5 929.5,-108.5 902.5,-44.5" style="fill:#65a1b5;stroke:#65a1b5;"></polygon><polygon stroke-linejoin="round" stroke-miterlimit="1" stroke-width="1" points="947.5,158.5 902.5,-44.5 840.5,-14.5" style="fill:#5f9bac;stroke:#5f9bac;"></polygon><polygon stroke-linejoin="round" stroke-miterlimit="1" stroke-width="1" points="947.5,158.5 877.5,210.5 946.5,165.5" style="fill:#68a1bc;stroke:#68a1bc;"></polygon><polygon stroke-linejoin="round" stroke-miterlimit="1" stroke-width="1" points="947.5,158.5 840.5,-14.5 877.5,210.5" style="fill:#629eb1;stroke:#629eb1;"></polygon><polygon stroke-linejoin="round" stroke-miterlimit="1" stroke-width="1" points="929.5,-108.5 789.5,-106.5 902.5,-44.5" style="fill:#508598;stroke:#508598;"></polygon><polygon stroke-linejoin="round" stroke-miterlimit="1" stroke-width="1" points="877.5,210.5 840.5,-14.5 663.5,209.5" style="fill:#669fb8;stroke:#669fb8;"></polygon><polygon stroke-linejoin="round" stroke-miterlimit="1" stroke-width="1" points="902.5,-44.5 789.5,-106.5 840.5,-14.5" style="fill:#5a90a6;stroke:#5a90a6;"></polygon><polygon stroke-linejoin="round" stroke-miterlimit="1" stroke-width="1" points="904.5,342.5 587.5,314.5 681.5,501.5" style="fill:#639cb4;stroke:#639cb4;"></polygon><polygon stroke-linejoin="round" stroke-miterlimit="1" stroke-width="1" points="904.5,342.5 663.5,209.5 587.5,314.5" style="fill:#68a2bb;stroke:#68a2bb;"></polygon><polygon stroke-linejoin="round" stroke-miterlimit="1" stroke-width="1" points="904.5,342.5 877.5,210.5 663.5,209.5" style="fill:#66a0b8;stroke:#66a0b8;"></polygon><polygon stroke-linejoin="round" stroke-miterlimit="1" stroke-width="1" points="840.5,-14.5 705.5,-84.5 663.5,209.5" style="fill:#639bb4;stroke:#639bb4;"></polygon><polygon stroke-linejoin="round" stroke-miterlimit="1" stroke-width="1" points="848.5,910.5 717.5,816.5 690.5,1089.5" style="fill:#508398;stroke:#508398;"></polygon><polygon stroke-linejoin="round" stroke-miterlimit="1" stroke-width="1" points="840.5,-14.5 789.5,-106.5 705.5,-84.5" style="fill:#6098ae;stroke:#6098ae;"></polygon><polygon stroke-linejoin="round" stroke-miterlimit="1" stroke-width="1" points="705.5,-84.5 615.5,-101.5 663.5,209.5" style="fill:#659eb7;stroke:#659eb7;"></polygon><polygon stroke-linejoin="round" stroke-miterlimit="1" stroke-width="1" points="782.5,659.5 681.5,501.5 592.5,698.5" style="fill:#5e94ad;stroke:#5e94ad;"></polygon><polygon stroke-linejoin="round" stroke-miterlimit="1" stroke-width="1" points="782.5,659.5 611.5,752.5 717.5,816.5" style="fill:#55899f;stroke:#55899f;"></polygon><polygon stroke-linejoin="round" stroke-miterlimit="1" stroke-width="1" points="789.5,-106.5 685.5,-108.5 705.5,-84.5" style="fill:#6ea9c4;stroke:#6ea9c4;"></polygon><polygon stroke-linejoin="round" stroke-miterlimit="1" stroke-width="1" points="782.5,659.5 592.5,698.5 611.5,752.5" style="fill:#4d7f94;stroke:#4d7f94;"></polygon><polygon stroke-linejoin="round" stroke-miterlimit="1" stroke-width="1" points="663.5,209.5 615.5,-101.5 461.5,247.5" style="fill:#76b2d0;stroke:#76b2d0;"></polygon><polygon stroke-linejoin="round" stroke-miterlimit="1" stroke-width="1" points="690.5,1089.5 611.5,752.5 387.5,1016.5" style="fill:#4f8197;stroke:#4f8197;"></polygon><polygon stroke-linejoin="round" stroke-miterlimit="1" stroke-width="1" points="705.5,-84.5 673.5,-108.5 615.5,-101.5" style="fill:#5588a0;stroke:#5588a0;"></polygon><polygon stroke-linejoin="round" stroke-miterlimit="1" stroke-width="1" points="717.5,816.5 611.5,752.5 690.5,1089.5" style="fill:#52859b;stroke:#52859b;"></polygon><polygon stroke-linejoin="round" stroke-miterlimit="1" stroke-width="1" points="615.5,-101.5 435.5,-108.5 461.5,247.5" style="fill:#74aecd;stroke:#74aecd;"></polygon><polygon stroke-linejoin="round" stroke-miterlimit="1" stroke-width="1" points="663.5,209.5 461.5,247.5 574.5,259.5" style="fill:#7bb7d7;stroke:#7bb7d7;"></polygon><polygon stroke-linejoin="round" stroke-miterlimit="1" stroke-width="1" points="663.5,209.5 574.5,259.5 587.5,314.5" style="fill:#79b3d4;stroke:#79b3d4;"></polygon><polygon stroke-linejoin="round" stroke-miterlimit="1" stroke-width="1" points="705.5,-84.5 685.5,-108.5 673.5,-108.5" style="fill:#548d9c;stroke:#548d9c;"></polygon><polygon stroke-linejoin="round" stroke-miterlimit="1" stroke-width="1" points="611.5,752.5 444.5,751.5 387.5,1016.5" style="fill:#52859c;stroke:#52859c;"></polygon><polygon stroke-linejoin="round" stroke-miterlimit="1" stroke-width="1" points="681.5,501.5 404.5,537.5 592.5,698.5" style="fill:#5d93ac;stroke:#5d93ac;"></polygon><polygon stroke-linejoin="round" stroke-miterlimit="1" stroke-width="1" points="681.5,501.5 587.5,314.5 404.5,537.5" style="fill:#679fba;stroke:#679fba;"></polygon><polygon stroke-linejoin="round" stroke-miterlimit="1" stroke-width="1" points="444.5,751.5 338.5,837.5 387.5,1016.5" style="fill:#508198;stroke:#508198;"></polygon><polygon stroke-linejoin="round" stroke-miterlimit="1" stroke-width="1" points="587.5,314.5 413.5,285.5 404.5,537.5" style="fill:#79b5d4;stroke:#79b5d4;"></polygon><polygon stroke-linejoin="round" stroke-miterlimit="1" stroke-width="1" points="592.5,698.5 404.5,537.5 420.5,693.5" style="fill:#53859d;stroke:#53859d;"></polygon><polygon stroke-linejoin="round" stroke-miterlimit="1" stroke-width="1" points="611.5,752.5 592.5,698.5 444.5,751.5" style="fill:#5d93ab;stroke:#5d93ab;"></polygon><polygon stroke-linejoin="round" stroke-miterlimit="1" stroke-width="1" points="340.5,-108.5 -154.5,-108.5 -68.5,-70.5" style="fill:#5c90aa;stroke:#5c90aa;"></polygon><polygon stroke-linejoin="round" stroke-miterlimit="1" stroke-width="1" points="592.5,698.5 420.5,693.5 444.5,751.5" style="fill:#69a2be;stroke:#69a2be;"></polygon><polygon stroke-linejoin="round" stroke-miterlimit="1" stroke-width="1" points="587.5,314.5 574.5,259.5 461.5,247.5" style="fill:#82bde2;stroke:#82bde2;"></polygon><polygon stroke-linejoin="round" stroke-miterlimit="1" stroke-width="1" points="587.5,314.5 461.5,247.5 413.5,285.5" style="fill:#99ddff;stroke:#99ddff;"></polygon><polygon stroke-linejoin="round" stroke-miterlimit="1" stroke-width="1" points="461.5,247.5 435.5,-108.5 340.5,-108.5" style="fill:#75aecf;stroke:#75aecf;"></polygon><polygon stroke-linejoin="round" stroke-miterlimit="1" stroke-width="1" points="413.5,285.5 316.5,501.5 348.5,511.5" style="fill:#6fa6c7;stroke:#6fa6c7;"></polygon><polygon stroke-linejoin="round" stroke-miterlimit="1" stroke-width="1" points="413.5,285.5 348.5,511.5 404.5,537.5" style="fill:#6ca4c2;stroke:#6ca4c2;"></polygon><polygon stroke-linejoin="round" stroke-miterlimit="1" stroke-width="1" points="461.5,247.5 220.5,170.5 413.5,285.5" style="fill:#d7ffff;stroke:#d7ffff;"></polygon><polygon stroke-linejoin="round" stroke-miterlimit="1" stroke-width="1" points="461.5,247.5 340.5,-108.5 220.5,170.5" style="fill:#92d2fa;stroke:#92d2fa;"></polygon><polygon stroke-linejoin="round" stroke-miterlimit="1" stroke-width="1" points="404.5,537.5 282.5,669.5 323.5,701.5" style="fill:#5a8fa7;stroke:#5a8fa7;"></polygon><polygon stroke-linejoin="round" stroke-miterlimit="1" stroke-width="1" points="420.5,693.5 404.5,537.5 323.5,701.5" style="fill:#5b90a9;stroke:#5b90a9;"></polygon><polygon stroke-linejoin="round" stroke-miterlimit="1" stroke-width="1" points="444.5,751.5 420.5,693.5 323.5,701.5" style="fill:#48778e;stroke:#48778e;"></polygon><polygon stroke-linejoin="round" stroke-miterlimit="1" stroke-width="1" points="444.5,751.5 323.5,701.5 338.5,837.5" style="fill:#4a7b91;stroke:#4a7b91;"></polygon><polygon stroke-linejoin="round" stroke-miterlimit="1" stroke-width="1" points="404.5,537.5 348.5,511.5 282.5,669.5" style="fill:#6499b6;stroke:#6499b6;"></polygon><polygon stroke-linejoin="round" stroke-miterlimit="1" stroke-width="1" points="413.5,285.5 105.5,402.5 316.5,501.5" style="fill:#71aaca;stroke:#71aaca;"></polygon><polygon stroke-linejoin="round" stroke-miterlimit="1" stroke-width="1" points="413.5,285.5 220.5,170.5 105.5,402.5" style="fill:#7db8db;stroke:#7db8db;"></polygon><polygon stroke-linejoin="round" stroke-miterlimit="1" stroke-width="1" points="348.5,511.5 316.5,501.5 282.5,669.5" style="fill:#6198b0;stroke:#6198b0;"></polygon><polygon stroke-linejoin="round" stroke-miterlimit="1" stroke-width="1" points="387.5,1016.5 338.5,837.5 -29.5,1114.5" style="fill:#4d7e93;stroke:#4d7e93;"></polygon><polygon stroke-linejoin="round" stroke-miterlimit="1" stroke-width="1" points="316.5,501.5 110.5,424.5 202.5,516.5" style="fill:#5d91ac;stroke:#5d91ac;"></polygon><polygon stroke-linejoin="round" stroke-miterlimit="1" stroke-width="1" points="316.5,501.5 105.5,402.5 110.5,424.5" style="fill:#6197b2;stroke:#6197b2;"></polygon><polygon stroke-linejoin="round" stroke-miterlimit="1" stroke-width="1" points="316.5,501.5 202.5,516.5 282.5,669.5" style="fill:#649cb6;stroke:#649cb6;"></polygon><polygon stroke-linejoin="round" stroke-miterlimit="1" stroke-width="1" points="338.5,837.5 146.5,739.5 -29.5,834.5" style="fill:#598ea6;stroke:#598ea6;"></polygon><polygon stroke-linejoin="round" stroke-miterlimit="1" stroke-width="1" points="338.5,837.5 -29.5,834.5 -29.5,1114.5" style="fill:#52849b;stroke:#52849b;"></polygon><polygon stroke-linejoin="round" stroke-miterlimit="1" stroke-width="1" points="338.5,837.5 323.5,701.5 146.5,739.5" style="fill:#568aa1;stroke:#568aa1;"></polygon><polygon stroke-linejoin="round" stroke-miterlimit="1" stroke-width="1" points="340.5,-108.5 -0.5,100.5 220.5,170.5" style="fill:#6ca4c2;stroke:#6ca4c2;"></polygon><polygon stroke-linejoin="round" stroke-miterlimit="1" stroke-width="1" points="323.5,701.5 282.5,669.5 146.5,739.5" style="fill:#52859c;stroke:#52859c;"></polygon><polygon stroke-linejoin="round" stroke-miterlimit="1" stroke-width="1" points="340.5,-108.5 -68.5,-70.5 -0.5,100.5" style="fill:#578ba4;stroke:#578ba4;"></polygon><polygon stroke-linejoin="round" stroke-miterlimit="1" stroke-width="1" points="282.5,669.5 202.5,516.5 146.5,739.5" style="fill:#52839b;stroke:#52839b;"></polygon><polygon stroke-linejoin="round" stroke-miterlimit="1" stroke-width="1" points="202.5,516.5 76.5,524.5 146.5,739.5" style="fill:#5588a0;stroke:#5588a0;"></polygon><polygon stroke-linejoin="round" stroke-miterlimit="1" stroke-width="1" points="220.5,170.5 4.5,180.5 105.5,402.5" style="fill:#6398b4;stroke:#6398b4;"></polygon><polygon stroke-linejoin="round" stroke-miterlimit="1" stroke-width="1" points="220.5,170.5 19.5,149.5 4.5,180.5" style="fill:#659bb7;stroke:#659bb7;"></polygon><polygon stroke-linejoin="round" stroke-miterlimit="1" stroke-width="1" points="220.5,170.5 -0.5,100.5 19.5,149.5" style="fill:#669db9;stroke:#669db9;"></polygon><polygon stroke-linejoin="round" stroke-miterlimit="1" stroke-width="1" points="202.5,516.5 110.5,424.5 76.5,524.5" style="fill:#6095af;stroke:#6095af;"></polygon><polygon stroke-linejoin="round" stroke-miterlimit="1" stroke-width="1" points="105.5,402.5 4.5,180.5 53.5,406.5" style="fill:#47758b;stroke:#47758b;"></polygon><polygon stroke-linejoin="round" stroke-miterlimit="1" stroke-width="1" points="146.5,739.5 76.5,524.5 -67.5,695.5" style="fill:#578ba3;stroke:#578ba3;"></polygon><polygon stroke-linejoin="round" stroke-miterlimit="1" stroke-width="1" points="146.5,739.5 -67.5,695.5 -29.5,834.5" style="fill:#508298;stroke:#508298;"></polygon><polygon stroke-linejoin="round" stroke-miterlimit="1" stroke-width="1" points="-29.5,1114.5 -29.5,834.5 -154.5,949.5" style="fill:#52859c;stroke:#52859c;"></polygon><polygon stroke-linejoin="round" stroke-miterlimit="1" stroke-width="1" points="110.5,424.5 105.5,402.5 53.5,406.5" style="fill:#588ca4;stroke:#588ca4;"></polygon><polygon stroke-linejoin="round" stroke-miterlimit="1" stroke-width="1" points="110.5,424.5 53.5,406.5 76.5,524.5" style="fill:#508099;stroke:#508099;"></polygon><polygon stroke-linejoin="round" stroke-miterlimit="1" stroke-width="1" points="53.5,406.5 4.5,180.5 -154.5,300.5" style="fill:#5b8fa9;stroke:#5b8fa9;"></polygon><polygon stroke-linejoin="round" stroke-miterlimit="1" stroke-width="1" points="76.5,524.5 -154.5,551.5 -67.5,695.5" style="fill:#53869d;stroke:#53869d;"></polygon><polygon stroke-linejoin="round" stroke-miterlimit="1" stroke-width="1" points="76.5,524.5 -154.5,516.5 -154.5,551.5" style="fill:#416f84;stroke:#416f84;"></polygon><polygon stroke-linejoin="round" stroke-miterlimit="1" stroke-width="1" points="76.5,524.5 53.5,406.5 -154.5,503.5" style="fill:#5b8fa8;stroke:#5b8fa8;"></polygon><polygon stroke-linejoin="round" stroke-miterlimit="1" stroke-width="1" points="76.5,524.5 -154.5,503.5 -154.5,516.5" style="fill:#7bb9d7;stroke:#7bb9d7;"></polygon><polygon stroke-linejoin="round" stroke-miterlimit="1" stroke-width="1" points="-29.5,834.5 -43.5,832.5 -154.5,949.5" style="fill:#4d7d95;stroke:#4d7d95;"></polygon><polygon stroke-linejoin="round" stroke-miterlimit="1" stroke-width="1" points="53.5,406.5 -154.5,300.5 -154.5,503.5" style="fill:#5588a0;stroke:#5588a0;"></polygon><polygon stroke-linejoin="round" stroke-miterlimit="1" stroke-width="1" points="-50.5,119.5 -68.5,-70.5 -154.5,11.5" style="fill:#4e7f97;stroke:#4e7f97;"></polygon><polygon stroke-linejoin="round" stroke-miterlimit="1" stroke-width="1" points="-29.5,834.5 -67.5,695.5 -43.5,832.5" style="fill:#3d697d;stroke:#3d697d;"></polygon><polygon stroke-linejoin="round" stroke-miterlimit="1" stroke-width="1" points="-29.5,1114.5 -154.5,949.5 -154.5,1087.5" style="fill:#51849a;stroke:#51849a;"></polygon><polygon stroke-linejoin="round" stroke-miterlimit="1" stroke-width="1" points="-0.5,100.5 -68.5,-70.5 -50.5,119.5" style="fill:#4f7f97;stroke:#4f7f97;"></polygon><polygon stroke-linejoin="round" stroke-miterlimit="1" stroke-width="1" points="4.5,180.5 -103.5,135.5 -154.5,300.5" style="fill:#5c90aa;stroke:#5c90aa;"></polygon><polygon stroke-linejoin="round" stroke-miterlimit="1" stroke-width="1" points="19.5,149.5 -50.5,119.5 4.5,180.5" style="fill:#588aa4;stroke:#588aa4;"></polygon><polygon stroke-linejoin="round" stroke-miterlimit="1" stroke-width="1" points="19.5,149.5 -0.5,100.5 -50.5,119.5" style="fill:#5b90a9;stroke:#5b90a9;"></polygon><polygon stroke-linejoin="round" stroke-miterlimit="1" stroke-width="1" points="4.5,180.5 -50.5,119.5 -103.5,135.5" style="fill:#6198b2;stroke:#6198b2;"></polygon><polygon stroke-linejoin="round" stroke-miterlimit="1" stroke-width="1" points="-50.5,119.5 -154.5,11.5 -103.5,135.5" style="fill:#53859e;stroke:#53859e;"></polygon><polygon stroke-linejoin="round" stroke-miterlimit="1" stroke-width="1" points="-29.5,1114.5 -154.5,1087.5 -154.5,1114.5" style="fill:#54869e;stroke:#54869e;"></polygon><polygon stroke-linejoin="round" stroke-miterlimit="1" stroke-width="1" points="-68.5,-70.5 -154.5,-37.5 -154.5,11.5" style="fill:#5588a0;stroke:#5588a0;"></polygon><polygon stroke-linejoin="round" stroke-miterlimit="1" stroke-width="1" points="-43.5,832.5 -67.5,695.5 -154.5,949.5" style="fill:#54879e;stroke:#54879e;"></polygon><polygon stroke-linejoin="round" stroke-miterlimit="1" stroke-width="1" points="-103.5,135.5 -154.5,130.5 -154.5,300.5" style="fill:#6fabc5;stroke:#6fabc5;"></polygon><polygon stroke-linejoin="round" stroke-miterlimit="1" stroke-width="1" points="-103.5,135.5 -154.5,11.5 -154.5,130.5" style="fill:#52849c;stroke:#52849c;"></polygon><polygon stroke-linejoin="round" stroke-miterlimit="1" stroke-width="1" points="-67.5,695.5 -154.5,551.5 -154.5,949.5" style="fill:#588ca4;stroke:#588ca4;"></polygon><polygon stroke-linejoin="round" stroke-miterlimit="1" stroke-width="1" points="-68.5,-70.5 -154.5,-108.5 -154.5,-37.5" style="fill:#48768d;stroke:#48768d;"></polygon><polygon stroke-linejoin="round" stroke-miterlimit="1" stroke-width="1" points="-154.5,516.5 -154.5,503.5 -154.5,551.5" style="fill:#3d697d;stroke:#3d697d;"></polygon></svg>