
      <svg xmlns="http://www.w3.org/2000/svg" version="1.1" width="1857" height="1009" style="display: block;"><polygon stroke-linejoin="round" stroke-miterlimit="1" stroke-width="1" points="1894.5,1114.5 1767.5,1059.5 1399.5,1114.5" style="fill:#121d41;stroke:#121d41;"></polygon><polygon stroke-linejoin="round" stroke-miterlimit="1" stroke-width="1" points="1900.5,699.5 1767.5,1059.5 1894.5,1114.5" style="fill:#0d153a;stroke:#0d153a;"></polygon><polygon stroke-linejoin="round" stroke-miterlimit="1" stroke-width="1" points="2014.5,407.5 1823.5,349.5 1866.5,511.5" style="fill:#121e41;stroke:#121e41;"></polygon><polygon stroke-linejoin="round" stroke-miterlimit="1" stroke-width="1" points="2014.5,695.5 1956.5,525.5 1900.5,699.5" style="fill:#0f183c;stroke:#0f183c;"></polygon><polygon stroke-linejoin="round" stroke-miterlimit="1" stroke-width="1" points="2014.5,450.5 2014.5,407.5 1866.5,511.5" style="fill:#152245;stroke:#152245;"></polygon><polygon stroke-linejoin="round" stroke-miterlimit="1" stroke-width="1" points="2014.5,450.5 1866.5,511.5 1956.5,525.5" style="fill:#0a1136;stroke:#0a1136;"></polygon><polygon stroke-linejoin="round" stroke-miterlimit="1" stroke-width="1" points="2014.5,450.5 1956.5,525.5 2014.5,486.5" style="fill:#070c31;stroke:#070c31;"></polygon><polygon stroke-linejoin="round" stroke-miterlimit="1" stroke-width="1" points="2014.5,109.5 1895.5,156.5 1990.5,158.5" style="fill:#121d41;stroke:#121d41;"></polygon><polygon stroke-linejoin="round" stroke-miterlimit="1" stroke-width="1" points="2014.5,109.5 1990.5,158.5 1991.5,226.5" style="fill:#223556;stroke:#223556;"></polygon><polygon stroke-linejoin="round" stroke-miterlimit="1" stroke-width="1" points="2014.5,-22.5 2010.5,-89.5 1857.5,-108.5" style="fill:#070c32;stroke:#070c32;"></polygon><polygon stroke-linejoin="round" stroke-miterlimit="1" stroke-width="1" points="2014.5,-22.5 1857.5,-108.5 1800.5,-26.5" style="fill:#152245;stroke:#152245;"></polygon><polygon stroke-linejoin="round" stroke-miterlimit="1" stroke-width="1" points="2014.5,-22.5 1895.5,156.5 2014.5,109.5" style="fill:#0e183c;stroke:#0e183c;"></polygon><polygon stroke-linejoin="round" stroke-miterlimit="1" stroke-width="1" points="2014.5,-22.5 1800.5,-26.5 1895.5,156.5" style="fill:#121d40;stroke:#121d40;"></polygon><polygon stroke-linejoin="round" stroke-miterlimit="1" stroke-width="1" points="2014.5,393.5 1823.5,349.5 2014.5,407.5" style="fill:#101a3e;stroke:#101a3e;"></polygon><polygon stroke-linejoin="round" stroke-miterlimit="1" stroke-width="1" points="2014.5,393.5 1991.5,226.5 1823.5,349.5" style="fill:#131e41;stroke:#131e41;"></polygon><polygon stroke-linejoin="round" stroke-miterlimit="1" stroke-width="1" points="2014.5,393.5 2014.5,109.5 1991.5,226.5" style="fill:#1c2c4e;stroke:#1c2c4e;"></polygon><polygon stroke-linejoin="round" stroke-miterlimit="1" stroke-width="1" points="2014.5,1114.5 2014.5,695.5 1900.5,699.5" style="fill:#0a1035;stroke:#0a1035;"></polygon><polygon stroke-linejoin="round" stroke-miterlimit="1" stroke-width="1" points="2014.5,1114.5 1900.5,699.5 1894.5,1114.5" style="fill:#0e183c;stroke:#0e183c;"></polygon><polygon stroke-linejoin="round" stroke-miterlimit="1" stroke-width="1" points="2014.5,503.5 2014.5,486.5 1956.5,525.5" style="fill:#243858;stroke:#243858;"></polygon><polygon stroke-linejoin="round" stroke-miterlimit="1" stroke-width="1" points="2014.5,503.5 1956.5,525.5 2014.5,695.5" style="fill:#121c40;stroke:#121c40;"></polygon><polygon stroke-linejoin="round" stroke-miterlimit="1" stroke-width="1" points="2014.5,-108.5 1857.5,-108.5 2010.5,-89.5" style="fill:#162346;stroke:#162346;"></polygon><polygon stroke-linejoin="round" stroke-miterlimit="1" stroke-width="1" points="2014.5,-108.5 2010.5,-89.5 2014.5,-22.5" style="fill:#070c31;stroke:#070c31;"></polygon><polygon stroke-linejoin="round" stroke-miterlimit="1" stroke-width="1" points="1900.5,699.5 1650.5,979.5 1767.5,1059.5" style="fill:#0f193d;stroke:#0f193d;"></polygon><polygon stroke-linejoin="round" stroke-miterlimit="1" stroke-width="1" points="1956.5,525.5 1808.5,637.5 1900.5,699.5" style="fill:#121e41;stroke:#121e41;"></polygon><polygon stroke-linejoin="round" stroke-miterlimit="1" stroke-width="1" points="1956.5,525.5 1866.5,511.5 1808.5,637.5" style="fill:#152144;stroke:#152144;"></polygon><polygon stroke-linejoin="round" stroke-miterlimit="1" stroke-width="1" points="1991.5,226.5 1990.5,158.5 1895.5,156.5" style="fill:#142144;stroke:#142144;"></polygon><polygon stroke-linejoin="round" stroke-miterlimit="1" stroke-width="1" points="1991.5,226.5 1895.5,156.5 1823.5,349.5" style="fill:#142043;stroke:#142043;"></polygon><polygon stroke-linejoin="round" stroke-miterlimit="1" stroke-width="1" points="1900.5,699.5 1703.5,683.5 1650.5,979.5" style="fill:#111b3f;stroke:#111b3f;"></polygon><polygon stroke-linejoin="round" stroke-miterlimit="1" stroke-width="1" points="1866.5,511.5 1823.5,349.5 1774.5,387.5" style="fill:#111c3f;stroke:#111c3f;"></polygon><polygon stroke-linejoin="round" stroke-miterlimit="1" stroke-width="1" points="1895.5,156.5 1630.5,104.5 1823.5,349.5" style="fill:#162346;stroke:#162346;"></polygon><polygon stroke-linejoin="round" stroke-miterlimit="1" stroke-width="1" points="1895.5,156.5 1800.5,-26.5 1630.5,104.5" style="fill:#131e42;stroke:#131e42;"></polygon><polygon stroke-linejoin="round" stroke-miterlimit="1" stroke-width="1" points="1900.5,699.5 1808.5,637.5 1703.5,683.5" style="fill:#0f183c;stroke:#0f183c;"></polygon><polygon stroke-linejoin="round" stroke-miterlimit="1" stroke-width="1" points="1703.5,683.5 1581.5,905.5 1650.5,979.5" style="fill:#101a3e;stroke:#101a3e;"></polygon><polygon stroke-linejoin="round" stroke-miterlimit="1" stroke-width="1" points="1823.5,349.5 1562.5,223.5 1660.5,384.5" style="fill:#172547;stroke:#172547;"></polygon><polygon stroke-linejoin="round" stroke-miterlimit="1" stroke-width="1" points="1823.5,349.5 1630.5,104.5 1562.5,223.5" style="fill:#172548;stroke:#172548;"></polygon><polygon stroke-linejoin="round" stroke-miterlimit="1" stroke-width="1" points="1866.5,511.5 1686.5,549.5 1808.5,637.5" style="fill:#131f42;stroke:#131f42;"></polygon><polygon stroke-linejoin="round" stroke-miterlimit="1" stroke-width="1" points="1866.5,511.5 1774.5,387.5 1686.5,549.5" style="fill:#121e41;stroke:#121e41;"></polygon><polygon stroke-linejoin="round" stroke-miterlimit="1" stroke-width="1" points="1857.5,-108.5 1547.5,-108.5 1800.5,-26.5" style="fill:#152144;stroke:#152144;"></polygon><polygon stroke-linejoin="round" stroke-miterlimit="1" stroke-width="1" points="1823.5,349.5 1660.5,384.5 1774.5,387.5" style="fill:#152144;stroke:#152144;"></polygon><polygon stroke-linejoin="round" stroke-miterlimit="1" stroke-width="1" points="1703.5,683.5 1661.5,684.5 1581.5,905.5" style="fill:#131f42;stroke:#131f42;"></polygon><polygon stroke-linejoin="round" stroke-miterlimit="1" stroke-width="1" points="1774.5,387.5 1630.5,468.5 1686.5,549.5" style="fill:#0f183c;stroke:#0f183c;"></polygon><polygon stroke-linejoin="round" stroke-miterlimit="1" stroke-width="1" points="1808.5,637.5 1686.5,549.5 1703.5,683.5" style="fill:#142043;stroke:#142043;"></polygon><polygon stroke-linejoin="round" stroke-miterlimit="1" stroke-width="1" points="1767.5,1059.5 1650.5,979.5 1399.5,1114.5" style="fill:#121e41;stroke:#121e41;"></polygon><polygon stroke-linejoin="round" stroke-miterlimit="1" stroke-width="1" points="1774.5,387.5 1660.5,384.5 1630.5,468.5" style="fill:#121e41;stroke:#121e41;"></polygon><polygon stroke-linejoin="round" stroke-miterlimit="1" stroke-width="1" points="1800.5,-26.5 1547.5,-108.5 1630.5,104.5" style="fill:#19274a;stroke:#19274a;"></polygon><polygon stroke-linejoin="round" stroke-miterlimit="1" stroke-width="1" points="1703.5,683.5 1686.5,549.5 1679.5,674.5" style="fill:#1a2a4c;stroke:#1a2a4c;"></polygon><polygon stroke-linejoin="round" stroke-miterlimit="1" stroke-width="1" points="1686.5,549.5 1661.5,684.5 1679.5,674.5" style="fill:#273d5d;stroke:#273d5d;"></polygon><polygon stroke-linejoin="round" stroke-miterlimit="1" stroke-width="1" points="1703.5,683.5 1679.5,674.5 1661.5,684.5" style="fill:#1e2f50;stroke:#1e2f50;"></polygon><polygon stroke-linejoin="round" stroke-miterlimit="1" stroke-width="1" points="1661.5,684.5 1451.5,676.5 1581.5,905.5" style="fill:#152144;stroke:#152144;"></polygon><polygon stroke-linejoin="round" stroke-miterlimit="1" stroke-width="1" points="1686.5,549.5 1451.5,676.5 1661.5,684.5" style="fill:#162346;stroke:#162346;"></polygon><polygon stroke-linejoin="round" stroke-miterlimit="1" stroke-width="1" points="1686.5,549.5 1630.5,468.5 1451.5,676.5" style="fill:#111c3f;stroke:#111c3f;"></polygon><polygon stroke-linejoin="round" stroke-miterlimit="1" stroke-width="1" points="1660.5,384.5 1562.5,223.5 1384.5,405.5" style="fill:#203354;stroke:#203354;"></polygon><polygon stroke-linejoin="round" stroke-miterlimit="1" stroke-width="1" points="1650.5,979.5 1581.5,905.5 1399.5,1114.5" style="fill:#0f183c;stroke:#0f183c;"></polygon><polygon stroke-linejoin="round" stroke-miterlimit="1" stroke-width="1" points="1660.5,384.5 1384.5,405.5 1630.5,468.5" style="fill:#1d2e50;stroke:#1d2e50;"></polygon><polygon stroke-linejoin="round" stroke-miterlimit="1" stroke-width="1" points="1562.5,223.5 1370.5,343.5 1384.5,405.5" style="fill:#1b2a4c;stroke:#1b2a4c;"></polygon><polygon stroke-linejoin="round" stroke-miterlimit="1" stroke-width="1" points="1630.5,468.5 1384.5,405.5 1451.5,676.5" style="fill:#172548;stroke:#172548;"></polygon><polygon stroke-linejoin="round" stroke-miterlimit="1" stroke-width="1" points="1630.5,104.5 1282.5,103.5 1562.5,223.5" style="fill:#233757;stroke:#233757;"></polygon><polygon stroke-linejoin="round" stroke-miterlimit="1" stroke-width="1" points="1630.5,104.5 1547.5,-108.5 1282.5,103.5" style="fill:#233757;stroke:#233757;"></polygon><polygon stroke-linejoin="round" stroke-miterlimit="1" stroke-width="1" points="1581.5,905.5 1386.5,1114.5 1399.5,1114.5" style="fill:#070c31;stroke:#070c31;"></polygon><polygon stroke-linejoin="round" stroke-miterlimit="1" stroke-width="1" points="1581.5,905.5 1232.5,1035.5 1386.5,1114.5" style="fill:#121e41;stroke:#121e41;"></polygon><polygon stroke-linejoin="round" stroke-miterlimit="1" stroke-width="1" points="1581.5,905.5 1301.5,725.5 1232.5,1035.5" style="fill:#111b3f;stroke:#111b3f;"></polygon><polygon stroke-linejoin="round" stroke-miterlimit="1" stroke-width="1" points="1581.5,905.5 1451.5,676.5 1321.5,708.5" style="fill:#152245;stroke:#152245;"></polygon><polygon stroke-linejoin="round" stroke-miterlimit="1" stroke-width="1" points="1581.5,905.5 1321.5,708.5 1301.5,725.5" style="fill:#203353;stroke:#203353;"></polygon><polygon stroke-linejoin="round" stroke-miterlimit="1" stroke-width="1" points="1562.5,223.5 1282.5,103.5 1370.5,343.5" style="fill:#34516e;stroke:#34516e;"></polygon><polygon stroke-linejoin="round" stroke-miterlimit="1" stroke-width="1" points="1547.5,-108.5 1075.5,-108.5 1282.5,103.5" style="fill:#263c5c;stroke:#263c5c;"></polygon><polygon stroke-linejoin="round" stroke-miterlimit="1" stroke-width="1" points="1384.5,405.5 1149.5,559.5 1321.5,708.5" style="fill:#19284a;stroke:#19284a;"></polygon><polygon stroke-linejoin="round" stroke-miterlimit="1" stroke-width="1" points="1386.5,1114.5 1214.5,1036.5 929.5,1114.5" style="fill:#0f183c;stroke:#0f183c;"></polygon><polygon stroke-linejoin="round" stroke-miterlimit="1" stroke-width="1" points="1451.5,676.5 1384.5,405.5 1321.5,708.5" style="fill:#152245;stroke:#152245;"></polygon><polygon stroke-linejoin="round" stroke-miterlimit="1" stroke-width="1" points="1386.5,1114.5 1232.5,1035.5 1214.5,1036.5" style="fill:#070c31;stroke:#070c31;"></polygon><polygon stroke-linejoin="round" stroke-miterlimit="1" stroke-width="1" points="1370.5,343.5 1282.5,103.5 1161.5,120.5" style="fill:#79bccc;stroke:#79bccc;"></polygon><polygon stroke-linejoin="round" stroke-miterlimit="1" stroke-width="1" points="1370.5,343.5 1161.5,120.5 1062.5,235.5" style="fill:#57879e;stroke:#57879e;"></polygon><polygon stroke-linejoin="round" stroke-miterlimit="1" stroke-width="1" points="1384.5,405.5 1370.5,343.5 1149.5,559.5" style="fill:#223657;stroke:#223657;"></polygon><polygon stroke-linejoin="round" stroke-miterlimit="1" stroke-width="1" points="1301.5,725.5 1214.5,1036.5 1232.5,1035.5" style="fill:#0a1035;stroke:#0a1035;"></polygon><polygon stroke-linejoin="round" stroke-miterlimit="1" stroke-width="1" points="1301.5,725.5 1126.5,721.5 1214.5,1036.5" style="fill:#131e41;stroke:#131e41;"></polygon><polygon stroke-linejoin="round" stroke-miterlimit="1" stroke-width="1" points="1370.5,343.5 1045.5,375.5 1149.5,559.5" style="fill:#253b5b;stroke:#253b5b;"></polygon><polygon stroke-linejoin="round" stroke-miterlimit="1" stroke-width="1" points="1370.5,343.5 1062.5,235.5 1045.5,375.5" style="fill:#334f6d;stroke:#334f6d;"></polygon><polygon stroke-linejoin="round" stroke-miterlimit="1" stroke-width="1" points="1214.5,1036.5 1126.5,721.5 1077.5,751.5" style="fill:#0f183c;stroke:#0f183c;"></polygon><polygon stroke-linejoin="round" stroke-miterlimit="1" stroke-width="1" points="1282.5,103.5 1075.5,-108.5 1161.5,120.5" style="fill:#2f4967;stroke:#2f4967;"></polygon><polygon stroke-linejoin="round" stroke-miterlimit="1" stroke-width="1" points="1301.5,725.5 1149.5,559.5 1126.5,721.5" style="fill:#19284a;stroke:#19284a;"></polygon><polygon stroke-linejoin="round" stroke-miterlimit="1" stroke-width="1" points="1321.5,708.5 1149.5,559.5 1301.5,725.5" style="fill:#223656;stroke:#223656;"></polygon><polygon stroke-linejoin="round" stroke-miterlimit="1" stroke-width="1" points="1214.5,1036.5 1077.5,751.5 876.5,930.5" style="fill:#101a3d;stroke:#101a3d;"></polygon><polygon stroke-linejoin="round" stroke-miterlimit="1" stroke-width="1" points="1214.5,1036.5 876.5,930.5 929.5,1114.5" style="fill:#101b3e;stroke:#101b3e;"></polygon><polygon stroke-linejoin="round" stroke-miterlimit="1" stroke-width="1" points="656.5,1114.5 306.5,1068.5 104.5,1114.5" style="fill:#070c31;stroke:#070c31;"></polygon><polygon stroke-linejoin="round" stroke-miterlimit="1" stroke-width="1" points="1126.5,721.5 909.5,589.5 1077.5,751.5" style="fill:#111b3f;stroke:#111b3f;"></polygon><polygon stroke-linejoin="round" stroke-miterlimit="1" stroke-width="1" points="1149.5,559.5 909.5,589.5 1126.5,721.5" style="fill:#1a294b;stroke:#1a294b;"></polygon><polygon stroke-linejoin="round" stroke-miterlimit="1" stroke-width="1" points="1161.5,120.5 1018.5,-108.5 875.5,109.5" style="fill:#223657;stroke:#223657;"></polygon><polygon stroke-linejoin="round" stroke-miterlimit="1" stroke-width="1" points="1161.5,120.5 875.5,109.5 983.5,205.5" style="fill:#263c5c;stroke:#263c5c;"></polygon><polygon stroke-linejoin="round" stroke-miterlimit="1" stroke-width="1" points="1161.5,120.5 983.5,205.5 1062.5,235.5" style="fill:#2b4463;stroke:#2b4463;"></polygon><polygon stroke-linejoin="round" stroke-miterlimit="1" stroke-width="1" points="1161.5,120.5 1075.5,-108.5 1018.5,-108.5" style="fill:#213455;stroke:#213455;"></polygon><polygon stroke-linejoin="round" stroke-miterlimit="1" stroke-width="1" points="1149.5,559.5 1045.5,375.5 909.5,589.5" style="fill:#182648;stroke:#182648;"></polygon><polygon stroke-linejoin="round" stroke-miterlimit="1" stroke-width="1" points="1077.5,751.5 937.5,743.5 876.5,930.5" style="fill:#0f193d;stroke:#0f193d;"></polygon><polygon stroke-linejoin="round" stroke-miterlimit="1" stroke-width="1" points="1077.5,751.5 909.5,589.5 937.5,743.5" style="fill:#1a294b;stroke:#1a294b;"></polygon><polygon stroke-linejoin="round" stroke-miterlimit="1" stroke-width="1" points="937.5,743.5 866.5,800.5 876.5,930.5" style="fill:#111c40;stroke:#111c40;"></polygon><polygon stroke-linejoin="round" stroke-miterlimit="1" stroke-width="1" points="1018.5,-108.5 933.5,-108.5 875.5,109.5" style="fill:#1f3152;stroke:#1f3152;"></polygon><polygon stroke-linejoin="round" stroke-miterlimit="1" stroke-width="1" points="1062.5,235.5 983.5,205.5 1045.5,375.5" style="fill:#2c4564;stroke:#2c4564;"></polygon><polygon stroke-linejoin="round" stroke-miterlimit="1" stroke-width="1" points="933.5,-108.5 929.5,-108.5 875.5,109.5" style="fill:#070c31;stroke:#070c31;"></polygon><polygon stroke-linejoin="round" stroke-miterlimit="1" stroke-width="1" points="1045.5,375.5 983.5,205.5 821.5,306.5" style="fill:#1f3152;stroke:#1f3152;"></polygon><polygon stroke-linejoin="round" stroke-miterlimit="1" stroke-width="1" points="1045.5,375.5 821.5,306.5 909.5,589.5" style="fill:#172548;stroke:#172548;"></polygon><polygon stroke-linejoin="round" stroke-miterlimit="1" stroke-width="1" points="909.5,589.5 821.5,306.5 698.5,467.5" style="fill:#172447;stroke:#172447;"></polygon><polygon stroke-linejoin="round" stroke-miterlimit="1" stroke-width="1" points="929.5,1114.5 876.5,930.5 816.5,962.5" style="fill:#0f193d;stroke:#0f193d;"></polygon><polygon stroke-linejoin="round" stroke-miterlimit="1" stroke-width="1" points="929.5,-108.5 554.5,-108.5 764.5,-19.5" style="fill:#162346;stroke:#162346;"></polygon><polygon stroke-linejoin="round" stroke-miterlimit="1" stroke-width="1" points="929.5,-108.5 764.5,-19.5 875.5,109.5" style="fill:#1c2c4e;stroke:#1c2c4e;"></polygon><polygon stroke-linejoin="round" stroke-miterlimit="1" stroke-width="1" points="983.5,205.5 867.5,149.5 821.5,306.5" style="fill:#1a2a4c;stroke:#1a2a4c;"></polygon><polygon stroke-linejoin="round" stroke-miterlimit="1" stroke-width="1" points="983.5,205.5 875.5,109.5 867.5,149.5" style="fill:#1e3051;stroke:#1e3051;"></polygon><polygon stroke-linejoin="round" stroke-miterlimit="1" stroke-width="1" points="867.5,149.5 834.5,160.5 821.5,306.5" style="fill:#070c31;stroke:#070c31;"></polygon><polygon stroke-linejoin="round" stroke-miterlimit="1" stroke-width="1" points="876.5,930.5 862.5,933.5 816.5,962.5" style="fill:#182648;stroke:#182648;"></polygon><polygon stroke-linejoin="round" stroke-miterlimit="1" stroke-width="1" points="909.5,589.5 698.5,467.5 730.5,570.5" style="fill:#111c3f;stroke:#111c3f;"></polygon><polygon stroke-linejoin="round" stroke-miterlimit="1" stroke-width="1" points="937.5,743.5 909.5,589.5 734.5,630.5" style="fill:#0f193d;stroke:#0f193d;"></polygon><polygon stroke-linejoin="round" stroke-miterlimit="1" stroke-width="1" points="937.5,743.5 734.5,630.5 866.5,800.5" style="fill:#152144;stroke:#152144;"></polygon><polygon stroke-linejoin="round" stroke-miterlimit="1" stroke-width="1" points="929.5,1114.5 816.5,962.5 656.5,1114.5" style="fill:#0c1439;stroke:#0c1439;"></polygon><polygon stroke-linejoin="round" stroke-miterlimit="1" stroke-width="1" points="876.5,930.5 866.5,800.5 862.5,933.5" style="fill:#090f34;stroke:#090f34;"></polygon><polygon stroke-linejoin="round" stroke-miterlimit="1" stroke-width="1" points="909.5,589.5 730.5,570.5 734.5,630.5" style="fill:#142043;stroke:#142043;"></polygon><polygon stroke-linejoin="round" stroke-miterlimit="1" stroke-width="1" points="834.5,160.5 742.5,179.5 821.5,306.5" style="fill:#182749;stroke:#182749;"></polygon><polygon stroke-linejoin="round" stroke-miterlimit="1" stroke-width="1" points="866.5,800.5 816.5,962.5 862.5,933.5" style="fill:#111c40;stroke:#111c40;"></polygon><polygon stroke-linejoin="round" stroke-miterlimit="1" stroke-width="1" points="875.5,109.5 834.5,160.5 867.5,149.5" style="fill:#28405f;stroke:#28405f;"></polygon><polygon stroke-linejoin="round" stroke-miterlimit="1" stroke-width="1" points="875.5,109.5 764.5,-19.5 834.5,160.5" style="fill:#182648;stroke:#182648;"></polygon><polygon stroke-linejoin="round" stroke-miterlimit="1" stroke-width="1" points="834.5,160.5 764.5,-19.5 742.5,179.5" style="fill:#182648;stroke:#182648;"></polygon><polygon stroke-linejoin="round" stroke-miterlimit="1" stroke-width="1" points="866.5,800.5 564.5,832.5 816.5,962.5" style="fill:#111b3f;stroke:#111b3f;"></polygon><polygon stroke-linejoin="round" stroke-miterlimit="1" stroke-width="1" points="866.5,800.5 734.5,630.5 564.5,832.5" style="fill:#0f193d;stroke:#0f193d;"></polygon><polygon stroke-linejoin="round" stroke-miterlimit="1" stroke-width="1" points="554.5,-108.5 178.5,-108.5 293.5,-76.5" style="fill:#0c1539;stroke:#0c1539;"></polygon><polygon stroke-linejoin="round" stroke-miterlimit="1" stroke-width="1" points="821.5,306.5 742.5,179.5 698.5,467.5" style="fill:#1b2b4c;stroke:#1b2b4c;"></polygon><polygon stroke-linejoin="round" stroke-miterlimit="1" stroke-width="1" points="742.5,179.5 518.5,382.5 698.5,467.5" style="fill:#142043;stroke:#142043;"></polygon><polygon stroke-linejoin="round" stroke-miterlimit="1" stroke-width="1" points="764.5,-19.5 598.5,90.5 742.5,179.5" style="fill:#152245;stroke:#152245;"></polygon><polygon stroke-linejoin="round" stroke-miterlimit="1" stroke-width="1" points="816.5,962.5 564.5,832.5 656.5,1114.5" style="fill:#0f183c;stroke:#0f183c;"></polygon><polygon stroke-linejoin="round" stroke-miterlimit="1" stroke-width="1" points="698.5,467.5 518.5,382.5 562.5,451.5" style="fill:#162346;stroke:#162346;"></polygon><polygon stroke-linejoin="round" stroke-miterlimit="1" stroke-width="1" points="764.5,-19.5 554.5,-108.5 598.5,90.5" style="fill:#111c3f;stroke:#111c3f;"></polygon><polygon stroke-linejoin="round" stroke-miterlimit="1" stroke-width="1" points="742.5,179.5 598.5,90.5 518.5,382.5" style="fill:#172447;stroke:#172447;"></polygon><polygon stroke-linejoin="round" stroke-miterlimit="1" stroke-width="1" points="734.5,630.5 730.5,570.5 562.5,451.5" style="fill:#121d41;stroke:#121d41;"></polygon><polygon stroke-linejoin="round" stroke-miterlimit="1" stroke-width="1" points="734.5,630.5 562.5,451.5 564.5,832.5" style="fill:#111c3f;stroke:#111c3f;"></polygon><polygon stroke-linejoin="round" stroke-miterlimit="1" stroke-width="1" points="656.5,1114.5 564.5,832.5 502.5,854.5" style="fill:#131e41;stroke:#131e41;"></polygon><polygon stroke-linejoin="round" stroke-miterlimit="1" stroke-width="1" points="730.5,570.5 698.5,467.5 562.5,451.5" style="fill:#0c1439;stroke:#0c1439;"></polygon><polygon stroke-linejoin="round" stroke-miterlimit="1" stroke-width="1" points="562.5,451.5 282.5,533.5 462.5,845.5" style="fill:#101b3f;stroke:#101b3f;"></polygon><polygon stroke-linejoin="round" stroke-miterlimit="1" stroke-width="1" points="564.5,832.5 562.5,451.5 462.5,845.5" style="fill:#111b3f;stroke:#111b3f;"></polygon><polygon stroke-linejoin="round" stroke-miterlimit="1" stroke-width="1" points="598.5,90.5 427.5,360.5 518.5,382.5" style="fill:#0e163b;stroke:#0e163b;"></polygon><polygon stroke-linejoin="round" stroke-miterlimit="1" stroke-width="1" points="656.5,1114.5 502.5,854.5 409.5,894.5" style="fill:#131e42;stroke:#131e42;"></polygon><polygon stroke-linejoin="round" stroke-miterlimit="1" stroke-width="1" points="656.5,1114.5 409.5,894.5 306.5,1068.5" style="fill:#0c1438;stroke:#0c1438;"></polygon><polygon stroke-linejoin="round" stroke-miterlimit="1" stroke-width="1" points="564.5,832.5 462.5,845.5 502.5,854.5" style="fill:#070c31;stroke:#070c31;"></polygon><polygon stroke-linejoin="round" stroke-miterlimit="1" stroke-width="1" points="598.5,90.5 193.5,143.5 358.5,329.5" style="fill:#111b3f;stroke:#111b3f;"></polygon><polygon stroke-linejoin="round" stroke-miterlimit="1" stroke-width="1" points="598.5,90.5 293.5,-76.5 193.5,143.5" style="fill:#0e173b;stroke:#0e173b;"></polygon><polygon stroke-linejoin="round" stroke-miterlimit="1" stroke-width="1" points="598.5,90.5 358.5,329.5 427.5,360.5" style="fill:#080e33;stroke:#080e33;"></polygon><polygon stroke-linejoin="round" stroke-miterlimit="1" stroke-width="1" points="598.5,90.5 554.5,-108.5 293.5,-76.5" style="fill:#101b3e;stroke:#101b3e;"></polygon><polygon stroke-linejoin="round" stroke-miterlimit="1" stroke-width="1" points="562.5,451.5 402.5,386.5 282.5,533.5" style="fill:#0e163b;stroke:#0e163b;"></polygon><polygon stroke-linejoin="round" stroke-miterlimit="1" stroke-width="1" points="562.5,451.5 518.5,382.5 402.5,386.5" style="fill:#121e41;stroke:#121e41;"></polygon><polygon stroke-linejoin="round" stroke-miterlimit="1" stroke-width="1" points="502.5,854.5 462.5,845.5 409.5,894.5" style="fill:#0b1237;stroke:#0b1237;"></polygon><polygon stroke-linejoin="round" stroke-miterlimit="1" stroke-width="1" points="518.5,382.5 427.5,360.5 402.5,386.5" style="fill:#0c1539;stroke:#0c1539;"></polygon><polygon stroke-linejoin="round" stroke-miterlimit="1" stroke-width="1" points="409.5,894.5 289.5,1009.5 306.5,1068.5" style="fill:#0d1539;stroke:#0d1539;"></polygon><polygon stroke-linejoin="round" stroke-miterlimit="1" stroke-width="1" points="358.5,329.5 193.5,143.5 205.5,244.5" style="fill:#0d163a;stroke:#0d163a;"></polygon><polygon stroke-linejoin="round" stroke-miterlimit="1" stroke-width="1" points="409.5,894.5 282.5,533.5 136.5,856.5" style="fill:#0d163a;stroke:#0d163a;"></polygon><polygon stroke-linejoin="round" stroke-miterlimit="1" stroke-width="1" points="462.5,845.5 282.5,533.5 409.5,894.5" style="fill:#0e163b;stroke:#0e163b;"></polygon><polygon stroke-linejoin="round" stroke-miterlimit="1" stroke-width="1" points="427.5,360.5 358.5,329.5 402.5,386.5" style="fill:#152144;stroke:#152144;"></polygon><polygon stroke-linejoin="round" stroke-miterlimit="1" stroke-width="1" points="402.5,386.5 234.5,489.5 282.5,533.5" style="fill:#0c1338;stroke:#0c1338;"></polygon><polygon stroke-linejoin="round" stroke-miterlimit="1" stroke-width="1" points="409.5,894.5 136.5,856.5 289.5,1009.5" style="fill:#0c1439;stroke:#0c1439;"></polygon><polygon stroke-linejoin="round" stroke-miterlimit="1" stroke-width="1" points="402.5,386.5 358.5,329.5 234.5,489.5" style="fill:#0d163a;stroke:#0d163a;"></polygon><polygon stroke-linejoin="round" stroke-miterlimit="1" stroke-width="1" points="289.5,1009.5 136.5,856.5 150.5,952.5" style="fill:#142043;stroke:#142043;"></polygon><polygon stroke-linejoin="round" stroke-miterlimit="1" stroke-width="1" points="358.5,329.5 187.5,413.5 234.5,489.5" style="fill:#0d153a;stroke:#0d153a;"></polygon><polygon stroke-linejoin="round" stroke-miterlimit="1" stroke-width="1" points="358.5,329.5 185.5,363.5 187.5,413.5" style="fill:#111c40;stroke:#111c40;"></polygon><polygon stroke-linejoin="round" stroke-miterlimit="1" stroke-width="1" points="358.5,329.5 205.5,244.5 185.5,363.5" style="fill:#0e173b;stroke:#0e173b;"></polygon><polygon stroke-linejoin="round" stroke-miterlimit="1" stroke-width="1" points="238.5,1028.5 198.5,1025.5 104.5,1114.5" style="fill:#0c1438;stroke:#0c1438;"></polygon><polygon stroke-linejoin="round" stroke-miterlimit="1" stroke-width="1" points="282.5,533.5 64.5,538.5 136.5,856.5" style="fill:#0d1539;stroke:#0d1539;"></polygon><polygon stroke-linejoin="round" stroke-miterlimit="1" stroke-width="1" points="289.5,1009.5 150.5,952.5 238.5,1028.5" style="fill:#070c31;stroke:#070c31;"></polygon><polygon stroke-linejoin="round" stroke-miterlimit="1" stroke-width="1" points="293.5,-76.5 178.5,-108.5 193.5,143.5" style="fill:#10193d;stroke:#10193d;"></polygon><polygon stroke-linejoin="round" stroke-miterlimit="1" stroke-width="1" points="306.5,1068.5 289.5,1009.5 238.5,1028.5" style="fill:#080e33;stroke:#080e33;"></polygon><polygon stroke-linejoin="round" stroke-miterlimit="1" stroke-width="1" points="306.5,1068.5 238.5,1028.5 104.5,1114.5" style="fill:#0d1539;stroke:#0d1539;"></polygon><polygon stroke-linejoin="round" stroke-miterlimit="1" stroke-width="1" points="238.5,1028.5 150.5,952.5 198.5,1025.5" style="fill:#070c31;stroke:#070c31;"></polygon><polygon stroke-linejoin="round" stroke-miterlimit="1" stroke-width="1" points="282.5,533.5 234.5,489.5 64.5,538.5" style="fill:#0e183c;stroke:#0e183c;"></polygon><polygon stroke-linejoin="round" stroke-miterlimit="1" stroke-width="1" points="136.5,856.5 64.5,538.5 21.5,836.5" style="fill:#0d1539;stroke:#0d1539;"></polygon><polygon stroke-linejoin="round" stroke-miterlimit="1" stroke-width="1" points="193.5,143.5 178.5,-108.5 -29.5,-17.5" style="fill:#0f193d;stroke:#0f193d;"></polygon><polygon stroke-linejoin="round" stroke-miterlimit="1" stroke-width="1" points="198.5,1025.5 135.5,1032.5 104.5,1114.5" style="fill:#0c1439;stroke:#0c1439;"></polygon><polygon stroke-linejoin="round" stroke-miterlimit="1" stroke-width="1" points="234.5,489.5 187.5,413.5 64.5,538.5" style="fill:#0b1338;stroke:#0b1338;"></polygon><polygon stroke-linejoin="round" stroke-miterlimit="1" stroke-width="1" points="178.5,-108.5 -154.5,-108.5 -29.5,-17.5" style="fill:#0b1237;stroke:#0b1237;"></polygon><polygon stroke-linejoin="round" stroke-miterlimit="1" stroke-width="1" points="193.5,143.5 -29.5,-17.5 -68.5,66.5" style="fill:#0d163a;stroke:#0d163a;"></polygon><polygon stroke-linejoin="round" stroke-miterlimit="1" stroke-width="1" points="198.5,1025.5 150.5,952.5 135.5,1032.5" style="fill:#0d153a;stroke:#0d153a;"></polygon><polygon stroke-linejoin="round" stroke-miterlimit="1" stroke-width="1" points="205.5,244.5 193.5,143.5 46.5,342.5" style="fill:#0a1236;stroke:#0a1236;"></polygon><polygon stroke-linejoin="round" stroke-miterlimit="1" stroke-width="1" points="205.5,244.5 46.5,342.5 185.5,363.5" style="fill:#0b1237;stroke:#0b1237;"></polygon><polygon stroke-linejoin="round" stroke-miterlimit="1" stroke-width="1" points="193.5,143.5 -68.5,66.5 -63.5,132.5" style="fill:#0d163a;stroke:#0d163a;"></polygon><polygon stroke-linejoin="round" stroke-miterlimit="1" stroke-width="1" points="193.5,143.5 -63.5,132.5 46.5,342.5" style="fill:#0c1539;stroke:#0c1539;"></polygon><polygon stroke-linejoin="round" stroke-miterlimit="1" stroke-width="1" points="187.5,413.5 185.5,363.5 46.5,342.5" style="fill:#0c1439;stroke:#0c1439;"></polygon><polygon stroke-linejoin="round" stroke-miterlimit="1" stroke-width="1" points="187.5,413.5 46.5,342.5 64.5,538.5" style="fill:#0c1438;stroke:#0c1438;"></polygon><polygon stroke-linejoin="round" stroke-miterlimit="1" stroke-width="1" points="64.5,538.5 -82.5,807.5 21.5,836.5" style="fill:#0c1438;stroke:#0c1438;"></polygon><polygon stroke-linejoin="round" stroke-miterlimit="1" stroke-width="1" points="150.5,952.5 136.5,856.5 13.5,914.5" style="fill:#0d1539;stroke:#0d1539;"></polygon><polygon stroke-linejoin="round" stroke-miterlimit="1" stroke-width="1" points="150.5,952.5 13.5,914.5 135.5,1032.5" style="fill:#070c31;stroke:#070c31;"></polygon><polygon stroke-linejoin="round" stroke-miterlimit="1" stroke-width="1" points="46.5,342.5 -63.5,132.5 -94.5,176.5" style="fill:#101a3e;stroke:#101a3e;"></polygon><polygon stroke-linejoin="round" stroke-miterlimit="1" stroke-width="1" points="64.5,538.5 -145.5,609.5 -82.5,807.5" style="fill:#0e173b;stroke:#0e173b;"></polygon><polygon stroke-linejoin="round" stroke-miterlimit="1" stroke-width="1" points="135.5,1032.5 29.5,1114.5 104.5,1114.5" style="fill:#0d1539;stroke:#0d1539;"></polygon><polygon stroke-linejoin="round" stroke-miterlimit="1" stroke-width="1" points="135.5,1032.5 13.5,914.5 -15.5,1037.5" style="fill:#0c1438;stroke:#0c1438;"></polygon><polygon stroke-linejoin="round" stroke-miterlimit="1" stroke-width="1" points="136.5,856.5 21.5,836.5 13.5,914.5" style="fill:#0a1135;stroke:#0a1135;"></polygon><polygon stroke-linejoin="round" stroke-miterlimit="1" stroke-width="1" points="135.5,1032.5 -15.5,1037.5 29.5,1114.5" style="fill:#0b1237;stroke:#0b1237;"></polygon><polygon stroke-linejoin="round" stroke-miterlimit="1" stroke-width="1" points="46.5,342.5 -154.5,347.5 -154.5,486.5" style="fill:#0c1439;stroke:#0c1439;"></polygon><polygon stroke-linejoin="round" stroke-miterlimit="1" stroke-width="1" points="64.5,538.5 -154.5,503.5 -145.5,609.5" style="fill:#0f183c;stroke:#0f183c;"></polygon><polygon stroke-linejoin="round" stroke-miterlimit="1" stroke-width="1" points="64.5,538.5 46.5,342.5 -154.5,486.5" style="fill:#0e173b;stroke:#0e173b;"></polygon><polygon stroke-linejoin="round" stroke-miterlimit="1" stroke-width="1" points="64.5,538.5 -154.5,486.5 -154.5,503.5" style="fill:#091035;stroke:#091035;"></polygon><polygon stroke-linejoin="round" stroke-miterlimit="1" stroke-width="1" points="46.5,342.5 -94.5,176.5 -154.5,347.5" style="fill:#0e173c;stroke:#0e173c;"></polygon><polygon stroke-linejoin="round" stroke-miterlimit="1" stroke-width="1" points="29.5,1114.5 -15.5,1037.5 -148.5,1114.5" style="fill:#0b1337;stroke:#0b1337;"></polygon><polygon stroke-linejoin="round" stroke-miterlimit="1" stroke-width="1" points="13.5,914.5 -154.5,928.5 -15.5,1037.5" style="fill:#0d163a;stroke:#0d163a;"></polygon><polygon stroke-linejoin="round" stroke-miterlimit="1" stroke-width="1" points="21.5,836.5 -82.5,807.5 13.5,914.5" style="fill:#111c3f;stroke:#111c3f;"></polygon><polygon stroke-linejoin="round" stroke-miterlimit="1" stroke-width="1" points="13.5,914.5 -82.5,807.5 -154.5,873.5" style="fill:#0d163a;stroke:#0d163a;"></polygon><polygon stroke-linejoin="round" stroke-miterlimit="1" stroke-width="1" points="13.5,914.5 -154.5,873.5 -154.5,928.5" style="fill:#0c1539;stroke:#0c1539;"></polygon><polygon stroke-linejoin="round" stroke-miterlimit="1" stroke-width="1" points="-29.5,-17.5 -154.5,-108.5 -116.5,-8.5" style="fill:#0c1438;stroke:#0c1438;"></polygon><polygon stroke-linejoin="round" stroke-miterlimit="1" stroke-width="1" points="-15.5,1037.5 -154.5,928.5 -148.5,1114.5" style="fill:#0f183c;stroke:#0f183c;"></polygon><polygon stroke-linejoin="round" stroke-miterlimit="1" stroke-width="1" points="-82.5,807.5 -129.5,820.5 -154.5,873.5" style="fill:#0d1539;stroke:#0d1539;"></polygon><polygon stroke-linejoin="round" stroke-miterlimit="1" stroke-width="1" points="-82.5,807.5 -145.5,609.5 -129.5,820.5" style="fill:#070c31;stroke:#070c31;"></polygon><polygon stroke-linejoin="round" stroke-miterlimit="1" stroke-width="1" points="-29.5,-17.5 -116.5,-8.5 -68.5,66.5" style="fill:#0b1237;stroke:#0b1237;"></polygon><polygon stroke-linejoin="round" stroke-miterlimit="1" stroke-width="1" points="-148.5,1114.5 -154.5,928.5 -154.5,1114.5" style="fill:#070c31;stroke:#070c31;"></polygon><polygon stroke-linejoin="round" stroke-miterlimit="1" stroke-width="1" points="-68.5,66.5 -116.5,-8.5 -154.5,23.5" style="fill:#0a1035;stroke:#0a1035;"></polygon><polygon stroke-linejoin="round" stroke-miterlimit="1" stroke-width="1" points="-63.5,132.5 -68.5,66.5 -154.5,23.5" style="fill:#0f193d;stroke:#0f193d;"></polygon><polygon stroke-linejoin="round" stroke-miterlimit="1" stroke-width="1" points="-63.5,132.5 -154.5,23.5 -94.5,176.5" style="fill:#101a3e;stroke:#101a3e;"></polygon><polygon stroke-linejoin="round" stroke-miterlimit="1" stroke-width="1" points="-129.5,820.5 -145.5,609.5 -154.5,607.5" style="fill:#456c86;stroke:#456c86;"></polygon><polygon stroke-linejoin="round" stroke-miterlimit="1" stroke-width="1" points="-145.5,609.5 -154.5,503.5 -154.5,607.5" style="fill:#142043;stroke:#142043;"></polygon><polygon stroke-linejoin="round" stroke-miterlimit="1" stroke-width="1" points="-94.5,176.5 -154.5,23.5 -154.5,347.5" style="fill:#070c31;stroke:#070c31;"></polygon><polygon stroke-linejoin="round" stroke-miterlimit="1" stroke-width="1" points="-129.5,820.5 -154.5,607.5 -154.5,873.5" style="fill:#070c31;stroke:#070c31;"></polygon><polygon stroke-linejoin="round" stroke-miterlimit="1" stroke-width="1" points="-116.5,-8.5 -154.5,-108.5 -154.5,5.5" style="fill:#152244;stroke:#152244;"></polygon><polygon stroke-linejoin="round" stroke-miterlimit="1" stroke-width="1" points="-116.5,-8.5 -154.5,5.5 -154.5,23.5" style="fill:#090f34;stroke:#090f34;"></polygon></svg>