
      <svg xmlns="http://www.w3.org/2000/svg" version="1.1" width="927" height="999" style="display: block;"><polygon stroke-linejoin="round" stroke-miterlimit="1" stroke-width="1" points="1001.5,489.5 826.5,329.5 762.5,500.5" style="fill:#8a5b45;stroke:#8a5b45;"></polygon><polygon stroke-linejoin="round" stroke-miterlimit="1" stroke-width="1" points="1001.5,489.5 959.5,228.5 826.5,329.5" style="fill:#a87754;stroke:#a87754;"></polygon><polygon stroke-linejoin="round" stroke-miterlimit="1" stroke-width="1" points="1003.5,48.5 926.5,-74.5 959.5,89.5" style="fill:#4d242a;stroke:#4d242a;"></polygon><polygon stroke-linejoin="round" stroke-miterlimit="1" stroke-width="1" points="1003.5,48.5 959.5,89.5 959.5,228.5" style="fill:#ffdf8a;stroke:#ffdf8a;"></polygon><polygon stroke-linejoin="round" stroke-miterlimit="1" stroke-width="1" points="1006.5,893.5 930.5,782.5 804.5,1004.5" style="fill:#51282c;stroke:#51282c;"></polygon><polygon stroke-linejoin="round" stroke-miterlimit="1" stroke-width="1" points="1006.5,971.5 1006.5,893.5 804.5,1004.5" style="fill:#623834;stroke:#623834;"></polygon><polygon stroke-linejoin="round" stroke-miterlimit="1" stroke-width="1" points="1006.5,1033.5 1006.5,971.5 804.5,1004.5" style="fill:#4d242a;stroke:#4d242a;"></polygon><polygon stroke-linejoin="round" stroke-miterlimit="1" stroke-width="1" points="1006.5,1033.5 804.5,1004.5 975.5,1093.5" style="fill:#72463b;stroke:#72463b;"></polygon><polygon stroke-linejoin="round" stroke-miterlimit="1" stroke-width="1" points="1006.5,-36.5 926.5,-74.5 1003.5,48.5" style="fill:#b27f58;stroke:#b27f58;"></polygon><polygon stroke-linejoin="round" stroke-miterlimit="1" stroke-width="1" points="1006.5,-36.5 1006.5,-103.5 964.5,-107.5" style="fill:#875844;stroke:#875844;"></polygon><polygon stroke-linejoin="round" stroke-miterlimit="1" stroke-width="1" points="1006.5,-36.5 964.5,-107.5 926.5,-74.5" style="fill:#51282c;stroke:#51282c;"></polygon><polygon stroke-linejoin="round" stroke-miterlimit="1" stroke-width="1" points="1006.5,800.5 907.5,696.5 930.5,782.5" style="fill:#7a4d40;stroke:#7a4d40;"></polygon><polygon stroke-linejoin="round" stroke-miterlimit="1" stroke-width="1" points="1006.5,800.5 930.5,782.5 1006.5,893.5" style="fill:#4d242a;stroke:#4d242a;"></polygon><polygon stroke-linejoin="round" stroke-miterlimit="1" stroke-width="1" points="1006.5,629.5 1001.5,594.5 896.5,634.5" style="fill:#4d242a;stroke:#4d242a;"></polygon><polygon stroke-linejoin="round" stroke-miterlimit="1" stroke-width="1" points="1006.5,629.5 896.5,634.5 907.5,696.5" style="fill:#75493d;stroke:#75493d;"></polygon><polygon stroke-linejoin="round" stroke-miterlimit="1" stroke-width="1" points="1006.5,629.5 907.5,696.5 1006.5,800.5" style="fill:#5d3331;stroke:#5d3331;"></polygon><polygon stroke-linejoin="round" stroke-miterlimit="1" stroke-width="1" points="1006.5,1103.5 975.5,1093.5 827.5,1103.5" style="fill:#4d242a;stroke:#4d242a;"></polygon><polygon stroke-linejoin="round" stroke-miterlimit="1" stroke-width="1" points="1006.5,1103.5 1006.5,1033.5 975.5,1093.5" style="fill:#8b5d47;stroke:#8b5d47;"></polygon><polygon stroke-linejoin="round" stroke-miterlimit="1" stroke-width="1" points="1006.5,498.5 985.5,547.5 1001.5,594.5" style="fill:#ffffbd;stroke:#ffffbd;"></polygon><polygon stroke-linejoin="round" stroke-miterlimit="1" stroke-width="1" points="1006.5,498.5 1001.5,489.5 985.5,547.5" style="fill:#ffffe6;stroke:#ffffe6;"></polygon><polygon stroke-linejoin="round" stroke-miterlimit="1" stroke-width="1" points="1006.5,498.5 1003.5,48.5 959.5,228.5" style="fill:#cc9765;stroke:#cc9765;"></polygon><polygon stroke-linejoin="round" stroke-miterlimit="1" stroke-width="1" points="1006.5,498.5 959.5,228.5 1001.5,489.5" style="fill:#4d242a;stroke:#4d242a;"></polygon><polygon stroke-linejoin="round" stroke-miterlimit="1" stroke-width="1" points="1006.5,498.5 1006.5,-36.5 1003.5,48.5" style="fill:#fffff9;stroke:#fffff9;"></polygon><polygon stroke-linejoin="round" stroke-miterlimit="1" stroke-width="1" points="1006.5,498.5 1001.5,594.5 1006.5,629.5" style="fill:#ffffd1;stroke:#ffffd1;"></polygon><polygon stroke-linejoin="round" stroke-miterlimit="1" stroke-width="1" points="1006.5,-107.5 964.5,-107.5 1006.5,-103.5" style="fill:#4d242a;stroke:#4d242a;"></polygon><polygon stroke-linejoin="round" stroke-miterlimit="1" stroke-width="1" points="930.5,782.5 808.5,787.5 804.5,1004.5" style="fill:#4f262b;stroke:#4f262b;"></polygon><polygon stroke-linejoin="round" stroke-miterlimit="1" stroke-width="1" points="959.5,89.5 926.5,-74.5 842.5,70.5" style="fill:#7e5140;stroke:#7e5140;"></polygon><polygon stroke-linejoin="round" stroke-miterlimit="1" stroke-width="1" points="964.5,-107.5 963.5,-107.5 926.5,-74.5" style="fill:#4d242a;stroke:#4d242a;"></polygon><polygon stroke-linejoin="round" stroke-miterlimit="1" stroke-width="1" points="1001.5,594.5 985.5,547.5 896.5,634.5" style="fill:#4d242a;stroke:#4d242a;"></polygon><polygon stroke-linejoin="round" stroke-miterlimit="1" stroke-width="1" points="1001.5,489.5 762.5,500.5 985.5,547.5" style="fill:#9f6e50;stroke:#9f6e50;"></polygon><polygon stroke-linejoin="round" stroke-miterlimit="1" stroke-width="1" points="959.5,89.5 842.5,70.5 802.5,210.5" style="fill:#7a4c3d;stroke:#7a4c3d;"></polygon><polygon stroke-linejoin="round" stroke-miterlimit="1" stroke-width="1" points="959.5,228.5 959.5,89.5 802.5,210.5" style="fill:#94644a;stroke:#94644a;"></polygon><polygon stroke-linejoin="round" stroke-miterlimit="1" stroke-width="1" points="959.5,228.5 836.5,253.5 826.5,329.5" style="fill:#96664b;stroke:#96664b;"></polygon><polygon stroke-linejoin="round" stroke-miterlimit="1" stroke-width="1" points="963.5,-107.5 962.5,-107.5 926.5,-74.5" style="fill:#4d242a;stroke:#4d242a;"></polygon><polygon stroke-linejoin="round" stroke-miterlimit="1" stroke-width="1" points="975.5,1093.5 804.5,1004.5 827.5,1103.5" style="fill:#a06f51;stroke:#a06f51;"></polygon><polygon stroke-linejoin="round" stroke-miterlimit="1" stroke-width="1" points="985.5,547.5 762.5,500.5 896.5,634.5" style="fill:#7c4f3f;stroke:#7c4f3f;"></polygon><polygon stroke-linejoin="round" stroke-miterlimit="1" stroke-width="1" points="962.5,-107.5 940.5,-107.5 926.5,-74.5" style="fill:#704439;stroke:#704439;"></polygon><polygon stroke-linejoin="round" stroke-miterlimit="1" stroke-width="1" points="808.5,787.5 772.5,982.5 804.5,1004.5" style="fill:#6c4038;stroke:#6c4038;"></polygon><polygon stroke-linejoin="round" stroke-miterlimit="1" stroke-width="1" points="808.5,787.5 782.5,802.5 772.5,982.5" style="fill:#ffd889;stroke:#ffd889;"></polygon><polygon stroke-linejoin="round" stroke-miterlimit="1" stroke-width="1" points="959.5,228.5 802.5,210.5 836.5,253.5" style="fill:#613733;stroke:#613733;"></polygon><polygon stroke-linejoin="round" stroke-miterlimit="1" stroke-width="1" points="940.5,-107.5 768.5,-107.5 926.5,-74.5" style="fill:#4d242a;stroke:#4d242a;"></polygon><polygon stroke-linejoin="round" stroke-miterlimit="1" stroke-width="1" points="926.5,-74.5 768.5,-107.5 842.5,70.5" style="fill:#643934;stroke:#643934;"></polygon><polygon stroke-linejoin="round" stroke-miterlimit="1" stroke-width="1" points="930.5,782.5 907.5,696.5 815.5,742.5" style="fill:#9c6c50;stroke:#9c6c50;"></polygon><polygon stroke-linejoin="round" stroke-miterlimit="1" stroke-width="1" points="930.5,782.5 815.5,742.5 808.5,787.5" style="fill:#572d2f;stroke:#572d2f;"></polygon><polygon stroke-linejoin="round" stroke-miterlimit="1" stroke-width="1" points="896.5,634.5 762.5,500.5 739.5,618.5" style="fill:#4f262b;stroke:#4f262b;"></polygon><polygon stroke-linejoin="round" stroke-miterlimit="1" stroke-width="1" points="907.5,696.5 896.5,634.5 818.5,692.5" style="fill:#f4bb77;stroke:#f4bb77;"></polygon><polygon stroke-linejoin="round" stroke-miterlimit="1" stroke-width="1" points="907.5,696.5 818.5,692.5 815.5,742.5" style="fill:#4d242a;stroke:#4d242a;"></polygon><polygon stroke-linejoin="round" stroke-miterlimit="1" stroke-width="1" points="896.5,634.5 739.5,618.5 818.5,692.5" style="fill:#4d242a;stroke:#4d242a;"></polygon><polygon stroke-linejoin="round" stroke-miterlimit="1" stroke-width="1" points="782.5,802.5 693.5,868.5 772.5,982.5" style="fill:#53292c;stroke:#53292c;"></polygon><polygon stroke-linejoin="round" stroke-miterlimit="1" stroke-width="1" points="818.5,692.5 739.5,618.5 776.5,696.5" style="fill:#51282c;stroke:#51282c;"></polygon><polygon stroke-linejoin="round" stroke-miterlimit="1" stroke-width="1" points="836.5,253.5 736.5,249.5 826.5,329.5" style="fill:#bd8a5e;stroke:#bd8a5e;"></polygon><polygon stroke-linejoin="round" stroke-miterlimit="1" stroke-width="1" points="842.5,70.5 755.5,172.5 802.5,210.5" style="fill:#fff092;stroke:#fff092;"></polygon><polygon stroke-linejoin="round" stroke-miterlimit="1" stroke-width="1" points="842.5,70.5 768.5,-107.5 755.5,172.5" style="fill:#906148;stroke:#906148;"></polygon><polygon stroke-linejoin="round" stroke-miterlimit="1" stroke-width="1" points="836.5,253.5 802.5,210.5 736.5,249.5" style="fill:#c89361;stroke:#c89361;"></polygon><polygon stroke-linejoin="round" stroke-miterlimit="1" stroke-width="1" points="762.5,500.5 736.5,249.5 581.5,441.5" style="fill:#794b3d;stroke:#794b3d;"></polygon><polygon stroke-linejoin="round" stroke-miterlimit="1" stroke-width="1" points="768.5,-107.5 516.5,139.5 755.5,172.5" style="fill:#a1704e;stroke:#a1704e;"></polygon><polygon stroke-linejoin="round" stroke-miterlimit="1" stroke-width="1" points="804.5,1004.5 772.5,982.5 637.5,1103.5" style="fill:#ffffb4;stroke:#ffffb4;"></polygon><polygon stroke-linejoin="round" stroke-miterlimit="1" stroke-width="1" points="818.5,692.5 776.5,696.5 815.5,742.5" style="fill:#98684a;stroke:#98684a;"></polygon><polygon stroke-linejoin="round" stroke-miterlimit="1" stroke-width="1" points="826.5,329.5 736.5,249.5 762.5,500.5" style="fill:#8f6047;stroke:#8f6047;"></polygon><polygon stroke-linejoin="round" stroke-miterlimit="1" stroke-width="1" points="827.5,1103.5 804.5,1004.5 637.5,1103.5" style="fill:#643935;stroke:#643935;"></polygon><polygon stroke-linejoin="round" stroke-miterlimit="1" stroke-width="1" points="762.5,500.5 733.5,615.5 739.5,618.5" style="fill:#4d242a;stroke:#4d242a;"></polygon><polygon stroke-linejoin="round" stroke-miterlimit="1" stroke-width="1" points="815.5,742.5 782.5,802.5 808.5,787.5" style="fill:#74483d;stroke:#74483d;"></polygon><polygon stroke-linejoin="round" stroke-miterlimit="1" stroke-width="1" points="815.5,742.5 776.5,696.5 782.5,802.5" style="fill:#4d242a;stroke:#4d242a;"></polygon><polygon stroke-linejoin="round" stroke-miterlimit="1" stroke-width="1" points="776.5,696.5 739.5,618.5 718.5,653.5" style="fill:#936348;stroke:#936348;"></polygon><polygon stroke-linejoin="round" stroke-miterlimit="1" stroke-width="1" points="802.5,210.5 755.5,172.5 736.5,249.5" style="fill:#e1aa6d;stroke:#e1aa6d;"></polygon><polygon stroke-linejoin="round" stroke-miterlimit="1" stroke-width="1" points="762.5,500.5 671.5,541.5 733.5,615.5" style="fill:#4d242a;stroke:#4d242a;"></polygon><polygon stroke-linejoin="round" stroke-miterlimit="1" stroke-width="1" points="768.5,-107.5 464.5,-107.5 516.5,139.5" style="fill:#9d6c4e;stroke:#9d6c4e;"></polygon><polygon stroke-linejoin="round" stroke-miterlimit="1" stroke-width="1" points="776.5,696.5 718.5,653.5 674.5,824.5" style="fill:#4d242a;stroke:#4d242a;"></polygon><polygon stroke-linejoin="round" stroke-miterlimit="1" stroke-width="1" points="782.5,802.5 776.5,696.5 674.5,824.5" style="fill:#76493d;stroke:#76493d;"></polygon><polygon stroke-linejoin="round" stroke-miterlimit="1" stroke-width="1" points="782.5,802.5 674.5,824.5 693.5,868.5" style="fill:#4d242a;stroke:#4d242a;"></polygon><polygon stroke-linejoin="round" stroke-miterlimit="1" stroke-width="1" points="762.5,500.5 581.5,441.5 671.5,541.5" style="fill:#764a3e;stroke:#764a3e;"></polygon><polygon stroke-linejoin="round" stroke-miterlimit="1" stroke-width="1" points="772.5,982.5 693.5,868.5 592.5,951.5" style="fill:#5d3332;stroke:#5d3332;"></polygon><polygon stroke-linejoin="round" stroke-miterlimit="1" stroke-width="1" points="772.5,982.5 592.5,951.5 637.5,1103.5" style="fill:#4d242a;stroke:#4d242a;"></polygon><polygon stroke-linejoin="round" stroke-miterlimit="1" stroke-width="1" points="718.5,653.5 590.5,689.5 674.5,824.5" style="fill:#774a3d;stroke:#774a3d;"></polygon><polygon stroke-linejoin="round" stroke-miterlimit="1" stroke-width="1" points="755.5,172.5 516.5,139.5 736.5,249.5" style="fill:#f2b972;stroke:#f2b972;"></polygon><polygon stroke-linejoin="round" stroke-miterlimit="1" stroke-width="1" points="637.5,1103.5 592.5,951.5 566.5,1030.5" style="fill:#76493e;stroke:#76493e;"></polygon><polygon stroke-linejoin="round" stroke-miterlimit="1" stroke-width="1" points="718.5,653.5 660.5,632.5 590.5,689.5" style="fill:#eab272;stroke:#eab272;"></polygon><polygon stroke-linejoin="round" stroke-miterlimit="1" stroke-width="1" points="733.5,615.5 671.5,541.5 656.5,594.5" style="fill:#cb9663;stroke:#cb9663;"></polygon><polygon stroke-linejoin="round" stroke-miterlimit="1" stroke-width="1" points="736.5,249.5 492.5,260.5 581.5,441.5" style="fill:#855642;stroke:#855642;"></polygon><polygon stroke-linejoin="round" stroke-miterlimit="1" stroke-width="1" points="736.5,249.5 516.5,139.5 492.5,260.5" style="fill:#ab7854;stroke:#ab7854;"></polygon><polygon stroke-linejoin="round" stroke-miterlimit="1" stroke-width="1" points="739.5,618.5 733.5,615.5 718.5,653.5" style="fill:#ffffd3;stroke:#ffffd3;"></polygon><polygon stroke-linejoin="round" stroke-miterlimit="1" stroke-width="1" points="733.5,615.5 660.5,632.5 718.5,653.5" style="fill:#ffcc80;stroke:#ffcc80;"></polygon><polygon stroke-linejoin="round" stroke-miterlimit="1" stroke-width="1" points="733.5,615.5 656.5,594.5 660.5,632.5" style="fill:#4d242a;stroke:#4d242a;"></polygon><polygon stroke-linejoin="round" stroke-miterlimit="1" stroke-width="1" points="581.5,441.5 492.5,260.5 472.5,349.5" style="fill:#8d5e48;stroke:#8d5e48;"></polygon><polygon stroke-linejoin="round" stroke-miterlimit="1" stroke-width="1" points="637.5,1103.5 566.5,1030.5 630.5,1103.5" style="fill:#4d242a;stroke:#4d242a;"></polygon><polygon stroke-linejoin="round" stroke-miterlimit="1" stroke-width="1" points="693.5,868.5 674.5,824.5 617.5,858.5" style="fill:#ab7957;stroke:#ab7957;"></polygon><polygon stroke-linejoin="round" stroke-miterlimit="1" stroke-width="1" points="693.5,868.5 617.5,858.5 592.5,951.5" style="fill:#592f2f;stroke:#592f2f;"></polygon><polygon stroke-linejoin="round" stroke-miterlimit="1" stroke-width="1" points="617.5,858.5 590.5,689.5 524.5,811.5" style="fill:#4d242a;stroke:#4d242a;"></polygon><polygon stroke-linejoin="round" stroke-miterlimit="1" stroke-width="1" points="674.5,824.5 590.5,689.5 617.5,858.5" style="fill:#5b3130;stroke:#5b3130;"></polygon><polygon stroke-linejoin="round" stroke-miterlimit="1" stroke-width="1" points="671.5,541.5 510.5,570.5 656.5,594.5" style="fill:#96674c;stroke:#96674c;"></polygon><polygon stroke-linejoin="round" stroke-miterlimit="1" stroke-width="1" points="671.5,541.5 581.5,441.5 510.5,570.5" style="fill:#7e5041;stroke:#7e5041;"></polygon><polygon stroke-linejoin="round" stroke-miterlimit="1" stroke-width="1" points="656.5,594.5 510.5,570.5 512.5,582.5" style="fill:#4d242a;stroke:#4d242a;"></polygon><polygon stroke-linejoin="round" stroke-miterlimit="1" stroke-width="1" points="660.5,632.5 656.5,594.5 590.5,689.5" style="fill:#e9b174;stroke:#e9b174;"></polygon><polygon stroke-linejoin="round" stroke-miterlimit="1" stroke-width="1" points="656.5,594.5 512.5,582.5 590.5,689.5" style="fill:#b5825b;stroke:#b5825b;"></polygon><polygon stroke-linejoin="round" stroke-miterlimit="1" stroke-width="1" points="630.5,1103.5 566.5,1030.5 512.5,1103.5" style="fill:#4d242a;stroke:#4d242a;"></polygon><polygon stroke-linejoin="round" stroke-miterlimit="1" stroke-width="1" points="617.5,858.5 524.5,811.5 592.5,951.5" style="fill:#8d5e47;stroke:#8d5e47;"></polygon><polygon stroke-linejoin="round" stroke-miterlimit="1" stroke-width="1" points="464.5,-107.5 389.5,-71.5 386.5,104.5" style="fill:#9c6c51;stroke:#9c6c51;"></polygon><polygon stroke-linejoin="round" stroke-miterlimit="1" stroke-width="1" points="516.5,139.5 464.5,-107.5 386.5,104.5" style="fill:#926249;stroke:#926249;"></polygon><polygon stroke-linejoin="round" stroke-miterlimit="1" stroke-width="1" points="590.5,689.5 454.5,721.5 524.5,811.5" style="fill:#76493d;stroke:#76493d;"></polygon><polygon stroke-linejoin="round" stroke-miterlimit="1" stroke-width="1" points="590.5,689.5 512.5,582.5 454.5,721.5" style="fill:#633833;stroke:#633833;"></polygon><polygon stroke-linejoin="round" stroke-miterlimit="1" stroke-width="1" points="592.5,951.5 524.5,811.5 451.5,850.5" style="fill:#52282c;stroke:#52282c;"></polygon><polygon stroke-linejoin="round" stroke-miterlimit="1" stroke-width="1" points="592.5,951.5 417.5,932.5 566.5,1030.5" style="fill:#875945;stroke:#875945;"></polygon><polygon stroke-linejoin="round" stroke-miterlimit="1" stroke-width="1" points="592.5,951.5 451.5,850.5 417.5,932.5" style="fill:#643935;stroke:#643935;"></polygon><polygon stroke-linejoin="round" stroke-miterlimit="1" stroke-width="1" points="566.5,1030.5 417.5,932.5 475.5,1057.5" style="fill:#7b4e40;stroke:#7b4e40;"></polygon><polygon stroke-linejoin="round" stroke-miterlimit="1" stroke-width="1" points="581.5,441.5 408.5,434.5 510.5,570.5" style="fill:#7e5142;stroke:#7e5142;"></polygon><polygon stroke-linejoin="round" stroke-miterlimit="1" stroke-width="1" points="581.5,441.5 472.5,349.5 408.5,434.5" style="fill:#4f262b;stroke:#4f262b;"></polygon><polygon stroke-linejoin="round" stroke-miterlimit="1" stroke-width="1" points="566.5,1030.5 475.5,1057.5 512.5,1103.5" style="fill:#e7b072;stroke:#e7b072;"></polygon><polygon stroke-linejoin="round" stroke-miterlimit="1" stroke-width="1" points="512.5,1103.5 475.5,1057.5 480.5,1087.5" style="fill:#cf9a65;stroke:#cf9a65;"></polygon><polygon stroke-linejoin="round" stroke-miterlimit="1" stroke-width="1" points="512.5,582.5 356.5,578.5 454.5,721.5" style="fill:#9e6e51;stroke:#9e6e51;"></polygon><polygon stroke-linejoin="round" stroke-miterlimit="1" stroke-width="1" points="516.5,139.5 386.5,104.5 492.5,260.5" style="fill:#a47250;stroke:#a47250;"></polygon><polygon stroke-linejoin="round" stroke-miterlimit="1" stroke-width="1" points="524.5,811.5 454.5,721.5 451.5,850.5" style="fill:#673c37;stroke:#673c37;"></polygon><polygon stroke-linejoin="round" stroke-miterlimit="1" stroke-width="1" points="510.5,570.5 408.5,434.5 356.5,578.5" style="fill:#562c2e;stroke:#562c2e;"></polygon><polygon stroke-linejoin="round" stroke-miterlimit="1" stroke-width="1" points="512.5,1103.5 480.5,1087.5 464.5,1103.5" style="fill:#ca9665;stroke:#ca9665;"></polygon><polygon stroke-linejoin="round" stroke-miterlimit="1" stroke-width="1" points="512.5,582.5 510.5,570.5 356.5,578.5" style="fill:#52292c;stroke:#52292c;"></polygon><polygon stroke-linejoin="round" stroke-miterlimit="1" stroke-width="1" points="454.5,721.5 382.5,778.5 451.5,850.5" style="fill:#4d242a;stroke:#4d242a;"></polygon><polygon stroke-linejoin="round" stroke-miterlimit="1" stroke-width="1" points="492.5,260.5 386.5,104.5 296.5,118.5" style="fill:#996950;stroke:#996950;"></polygon><polygon stroke-linejoin="round" stroke-miterlimit="1" stroke-width="1" points="492.5,260.5 296.5,118.5 224.5,203.5" style="fill:#74483d;stroke:#74483d;"></polygon><polygon stroke-linejoin="round" stroke-miterlimit="1" stroke-width="1" points="492.5,260.5 224.5,203.5 472.5,349.5" style="fill:#6c4039;stroke:#6c4039;"></polygon><polygon stroke-linejoin="round" stroke-miterlimit="1" stroke-width="1" points="389.5,-71.5 344.5,-56.5 386.5,104.5" style="fill:#b48156;stroke:#b48156;"></polygon><polygon stroke-linejoin="round" stroke-miterlimit="1" stroke-width="1" points="454.5,721.5 356.5,578.5 312.5,676.5" style="fill:#5a3030;stroke:#5a3030;"></polygon><polygon stroke-linejoin="round" stroke-miterlimit="1" stroke-width="1" points="472.5,349.5 224.5,203.5 301.5,433.5" style="fill:#6e4239;stroke:#6e4239;"></polygon><polygon stroke-linejoin="round" stroke-miterlimit="1" stroke-width="1" points="475.5,1057.5 417.5,932.5 366.5,936.5" style="fill:#8b5c47;stroke:#8b5c47;"></polygon><polygon stroke-linejoin="round" stroke-miterlimit="1" stroke-width="1" points="480.5,1087.5 475.5,1057.5 464.5,1103.5" style="fill:#8b5c45;stroke:#8b5c45;"></polygon><polygon stroke-linejoin="round" stroke-miterlimit="1" stroke-width="1" points="475.5,1057.5 366.5,936.5 464.5,1103.5" style="fill:#50272c;stroke:#50272c;"></polygon><polygon stroke-linejoin="round" stroke-miterlimit="1" stroke-width="1" points="464.5,1103.5 366.5,936.5 233.5,1103.5" style="fill:#4d242a;stroke:#4d242a;"></polygon><polygon stroke-linejoin="round" stroke-miterlimit="1" stroke-width="1" points="472.5,349.5 301.5,433.5 408.5,434.5" style="fill:#9f6f51;stroke:#9f6f51;"></polygon><polygon stroke-linejoin="round" stroke-miterlimit="1" stroke-width="1" points="366.5,936.5 259.5,974.5 233.5,1103.5" style="fill:#7e5141;stroke:#7e5141;"></polygon><polygon stroke-linejoin="round" stroke-miterlimit="1" stroke-width="1" points="464.5,-107.5 395.5,-107.5 389.5,-71.5" style="fill:#4d242a;stroke:#4d242a;"></polygon><polygon stroke-linejoin="round" stroke-miterlimit="1" stroke-width="1" points="451.5,850.5 366.5,936.5 417.5,932.5" style="fill:#4d242a;stroke:#4d242a;"></polygon><polygon stroke-linejoin="round" stroke-miterlimit="1" stroke-width="1" points="454.5,721.5 312.5,676.5 382.5,778.5" style="fill:#6d413a;stroke:#6d413a;"></polygon><polygon stroke-linejoin="round" stroke-miterlimit="1" stroke-width="1" points="451.5,850.5 382.5,778.5 298.5,869.5" style="fill:#c79364;stroke:#c79364;"></polygon><polygon stroke-linejoin="round" stroke-miterlimit="1" stroke-width="1" points="451.5,850.5 298.5,869.5 366.5,936.5" style="fill:#af7d57;stroke:#af7d57;"></polygon><polygon stroke-linejoin="round" stroke-miterlimit="1" stroke-width="1" points="356.5,578.5 333.5,589.5 312.5,676.5" style="fill:#ffe392;stroke:#ffe392;"></polygon><polygon stroke-linejoin="round" stroke-miterlimit="1" stroke-width="1" points="386.5,104.5 344.5,-56.5 283.5,5.5" style="fill:#74473b;stroke:#74473b;"></polygon><polygon stroke-linejoin="round" stroke-miterlimit="1" stroke-width="1" points="395.5,-107.5 24.5,-107.5 344.5,-56.5" style="fill:#4d242a;stroke:#4d242a;"></polygon><polygon stroke-linejoin="round" stroke-miterlimit="1" stroke-width="1" points="408.5,434.5 301.5,433.5 356.5,578.5" style="fill:#96674e;stroke:#96674e;"></polygon><polygon stroke-linejoin="round" stroke-miterlimit="1" stroke-width="1" points="344.5,-56.5 24.5,-107.5 101.5,-26.5" style="fill:#b8865e;stroke:#b8865e;"></polygon><polygon stroke-linejoin="round" stroke-miterlimit="1" stroke-width="1" points="366.5,936.5 300.5,928.5 259.5,974.5" style="fill:#4d242a;stroke:#4d242a;"></polygon><polygon stroke-linejoin="round" stroke-miterlimit="1" stroke-width="1" points="386.5,104.5 283.5,5.5 296.5,118.5" style="fill:#855744;stroke:#855744;"></polygon><polygon stroke-linejoin="round" stroke-miterlimit="1" stroke-width="1" points="395.5,-107.5 344.5,-56.5 389.5,-71.5" style="fill:#a77657;stroke:#a77657;"></polygon><polygon stroke-linejoin="round" stroke-miterlimit="1" stroke-width="1" points="356.5,578.5 301.5,433.5 333.5,589.5" style="fill:#b07f5b;stroke:#b07f5b;"></polygon><polygon stroke-linejoin="round" stroke-miterlimit="1" stroke-width="1" points="301.5,433.5 224.5,203.5 161.5,381.5" style="fill:#895a45;stroke:#895a45;"></polygon><polygon stroke-linejoin="round" stroke-miterlimit="1" stroke-width="1" points="366.5,936.5 298.5,869.5 300.5,928.5" style="fill:#bf8b5e;stroke:#bf8b5e;"></polygon><polygon stroke-linejoin="round" stroke-miterlimit="1" stroke-width="1" points="382.5,778.5 312.5,676.5 247.5,861.5" style="fill:#75483b;stroke:#75483b;"></polygon><polygon stroke-linejoin="round" stroke-miterlimit="1" stroke-width="1" points="382.5,778.5 247.5,861.5 298.5,869.5" style="fill:#4e252b;stroke:#4e252b;"></polygon><polygon stroke-linejoin="round" stroke-miterlimit="1" stroke-width="1" points="333.5,589.5 301.5,433.5 241.5,604.5" style="fill:#b8865f;stroke:#b8865f;"></polygon><polygon stroke-linejoin="round" stroke-miterlimit="1" stroke-width="1" points="344.5,-56.5 101.5,-26.5 283.5,5.5" style="fill:#ae7c57;stroke:#ae7c57;"></polygon><polygon stroke-linejoin="round" stroke-miterlimit="1" stroke-width="1" points="333.5,589.5 241.5,604.5 312.5,676.5" style="fill:#c28e5f;stroke:#c28e5f;"></polygon><polygon stroke-linejoin="round" stroke-miterlimit="1" stroke-width="1" points="312.5,676.5 201.5,857.5 247.5,861.5" style="fill:#6c4139;stroke:#6c4139;"></polygon><polygon stroke-linejoin="round" stroke-miterlimit="1" stroke-width="1" points="301.5,433.5 95.5,468.5 241.5,604.5" style="fill:#6b3f38;stroke:#6b3f38;"></polygon><polygon stroke-linejoin="round" stroke-miterlimit="1" stroke-width="1" points="301.5,433.5 161.5,381.5 95.5,468.5" style="fill:#643934;stroke:#643934;"></polygon><polygon stroke-linejoin="round" stroke-miterlimit="1" stroke-width="1" points="312.5,676.5 241.5,604.5 78.5,715.5" style="fill:#4d242a;stroke:#4d242a;"></polygon><polygon stroke-linejoin="round" stroke-miterlimit="1" stroke-width="1" points="312.5,676.5 78.5,715.5 201.5,857.5" style="fill:#7f5241;stroke:#7f5241;"></polygon><polygon stroke-linejoin="round" stroke-miterlimit="1" stroke-width="1" points="296.5,118.5 283.5,5.5 102.5,74.5" style="fill:#94644b;stroke:#94644b;"></polygon><polygon stroke-linejoin="round" stroke-miterlimit="1" stroke-width="1" points="300.5,928.5 298.5,869.5 247.5,861.5" style="fill:#4d242a;stroke:#4d242a;"></polygon><polygon stroke-linejoin="round" stroke-miterlimit="1" stroke-width="1" points="300.5,928.5 247.5,861.5 259.5,974.5" style="fill:#895b47;stroke:#895b47;"></polygon><polygon stroke-linejoin="round" stroke-miterlimit="1" stroke-width="1" points="241.5,604.5 77.5,708.5 78.5,715.5" style="fill:#fec580;stroke:#fec580;"></polygon><polygon stroke-linejoin="round" stroke-miterlimit="1" stroke-width="1" points="259.5,974.5 227.5,1103.5 233.5,1103.5" style="fill:#daa470;stroke:#daa470;"></polygon><polygon stroke-linejoin="round" stroke-miterlimit="1" stroke-width="1" points="296.5,118.5 102.5,74.5 224.5,203.5" style="fill:#8a5b47;stroke:#8a5b47;"></polygon><polygon stroke-linejoin="round" stroke-miterlimit="1" stroke-width="1" points="241.5,604.5 80.5,657.5 77.5,708.5" style="fill:#4d242a;stroke:#4d242a;"></polygon><polygon stroke-linejoin="round" stroke-miterlimit="1" stroke-width="1" points="259.5,974.5 197.5,973.5 227.5,1103.5" style="fill:#5c3230;stroke:#5c3230;"></polygon><polygon stroke-linejoin="round" stroke-miterlimit="1" stroke-width="1" points="259.5,974.5 247.5,861.5 197.5,973.5" style="fill:#532a2d;stroke:#532a2d;"></polygon><polygon stroke-linejoin="round" stroke-miterlimit="1" stroke-width="1" points="283.5,5.5 101.5,-26.5 102.5,74.5" style="fill:#633835;stroke:#633835;"></polygon><polygon stroke-linejoin="round" stroke-miterlimit="1" stroke-width="1" points="224.5,203.5 87.5,346.5 161.5,381.5" style="fill:#a27154;stroke:#a27154;"></polygon><polygon stroke-linejoin="round" stroke-miterlimit="1" stroke-width="1" points="247.5,861.5 201.5,857.5 197.5,973.5" style="fill:#5c3231;stroke:#5c3231;"></polygon><polygon stroke-linejoin="round" stroke-miterlimit="1" stroke-width="1" points="241.5,604.5 95.5,468.5 80.5,657.5" style="fill:#582e2f;stroke:#582e2f;"></polygon><polygon stroke-linejoin="round" stroke-miterlimit="1" stroke-width="1" points="101.5,-26.5 24.5,-107.5 37.5,-73.5" style="fill:#a3714f;stroke:#a3714f;"></polygon><polygon stroke-linejoin="round" stroke-miterlimit="1" stroke-width="1" points="227.5,1103.5 197.5,973.5 55.5,1103.5" style="fill:#8f604a;stroke:#8f604a;"></polygon><polygon stroke-linejoin="round" stroke-miterlimit="1" stroke-width="1" points="224.5,203.5 102.5,74.5 87.5,346.5" style="fill:#855746;stroke:#855746;"></polygon><polygon stroke-linejoin="round" stroke-miterlimit="1" stroke-width="1" points="197.5,973.5 47.5,969.5 55.5,1103.5" style="fill:#93644c;stroke:#93644c;"></polygon><polygon stroke-linejoin="round" stroke-miterlimit="1" stroke-width="1" points="201.5,857.5 47.5,969.5 197.5,973.5" style="fill:#53292d;stroke:#53292d;"></polygon><polygon stroke-linejoin="round" stroke-miterlimit="1" stroke-width="1" points="201.5,857.5 78.5,715.5 47.5,969.5" style="fill:#885a46;stroke:#885a46;"></polygon><polygon stroke-linejoin="round" stroke-miterlimit="1" stroke-width="1" points="95.5,468.5 11.5,592.5 80.5,657.5" style="fill:#643935;stroke:#643935;"></polygon><polygon stroke-linejoin="round" stroke-miterlimit="1" stroke-width="1" points="78.5,715.5 -50.5,902.5 47.5,969.5" style="fill:#7c4f41;stroke:#7c4f41;"></polygon><polygon stroke-linejoin="round" stroke-miterlimit="1" stroke-width="1" points="102.5,74.5 -76.5,343.5 87.5,346.5" style="fill:#a17053;stroke:#a17053;"></polygon><polygon stroke-linejoin="round" stroke-miterlimit="1" stroke-width="1" points="102.5,74.5 101.5,-26.5 61.5,15.5" style="fill:#8a5c48;stroke:#8a5c48;"></polygon><polygon stroke-linejoin="round" stroke-miterlimit="1" stroke-width="1" points="161.5,381.5 87.5,346.5 95.5,468.5" style="fill:#855744;stroke:#855744;"></polygon><polygon stroke-linejoin="round" stroke-miterlimit="1" stroke-width="1" points="78.5,715.5 -76.5,810.5 -50.5,902.5" style="fill:#623733;stroke:#623733;"></polygon><polygon stroke-linejoin="round" stroke-miterlimit="1" stroke-width="1" points="80.5,657.5 11.5,592.5 8.5,604.5" style="fill:#4d242a;stroke:#4d242a;"></polygon><polygon stroke-linejoin="round" stroke-miterlimit="1" stroke-width="1" points="95.5,468.5 87.5,346.5 -49.5,457.5" style="fill:#6c4039;stroke:#6c4039;"></polygon><polygon stroke-linejoin="round" stroke-miterlimit="1" stroke-width="1" points="95.5,468.5 -49.5,457.5 11.5,592.5" style="fill:#b2805a;stroke:#b2805a;"></polygon><polygon stroke-linejoin="round" stroke-miterlimit="1" stroke-width="1" points="102.5,74.5 61.5,15.5 -76.5,55.5" style="fill:#ac7b59;stroke:#ac7b59;"></polygon><polygon stroke-linejoin="round" stroke-miterlimit="1" stroke-width="1" points="102.5,74.5 -76.5,55.5 -76.5,343.5" style="fill:#bd8a62;stroke:#bd8a62;"></polygon><polygon stroke-linejoin="round" stroke-miterlimit="1" stroke-width="1" points="101.5,-26.5 37.5,-73.5 61.5,15.5" style="fill:#b27f57;stroke:#b27f57;"></polygon><polygon stroke-linejoin="round" stroke-miterlimit="1" stroke-width="1" points="78.5,715.5 -43.5,702.5 -76.5,810.5" style="fill:#4d242a;stroke:#4d242a;"></polygon><polygon stroke-linejoin="round" stroke-miterlimit="1" stroke-width="1" points="87.5,346.5 -76.5,343.5 -49.5,457.5" style="fill:#91624a;stroke:#91624a;"></polygon><polygon stroke-linejoin="round" stroke-miterlimit="1" stroke-width="1" points="55.5,1103.5 47.5,969.5 -76.5,1035.5" style="fill:#845644;stroke:#845644;"></polygon><polygon stroke-linejoin="round" stroke-miterlimit="1" stroke-width="1" points="80.5,657.5 -43.5,702.5 77.5,708.5" style="fill:#c99565;stroke:#c99565;"></polygon><polygon stroke-linejoin="round" stroke-miterlimit="1" stroke-width="1" points="80.5,657.5 8.5,604.5 -43.5,702.5" style="fill:#8f604b;stroke:#8f604b;"></polygon><polygon stroke-linejoin="round" stroke-miterlimit="1" stroke-width="1" points="78.5,715.5 77.5,708.5 -43.5,702.5" style="fill:#ffffc7;stroke:#ffffc7;"></polygon><polygon stroke-linejoin="round" stroke-miterlimit="1" stroke-width="1" points="11.5,592.5 -49.5,457.5 -76.5,498.5" style="fill:#996950;stroke:#996950;"></polygon><polygon stroke-linejoin="round" stroke-miterlimit="1" stroke-width="1" points="47.5,969.5 -59.5,978.5 -76.5,1035.5" style="fill:#52292c;stroke:#52292c;"></polygon><polygon stroke-linejoin="round" stroke-miterlimit="1" stroke-width="1" points="55.5,1103.5 -76.5,1035.5 -76.5,1103.5" style="fill:#4d242a;stroke:#4d242a;"></polygon><polygon stroke-linejoin="round" stroke-miterlimit="1" stroke-width="1" points="61.5,15.5 37.5,-73.5 -21.5,-60.5" style="fill:#5d3231;stroke:#5d3231;"></polygon><polygon stroke-linejoin="round" stroke-miterlimit="1" stroke-width="1" points="61.5,15.5 -21.5,-60.5 -76.5,55.5" style="fill:#9f6f53;stroke:#9f6f53;"></polygon><polygon stroke-linejoin="round" stroke-miterlimit="1" stroke-width="1" points="47.5,969.5 -50.5,902.5 -59.5,978.5" style="fill:#4d242a;stroke:#4d242a;"></polygon><polygon stroke-linejoin="round" stroke-miterlimit="1" stroke-width="1" points="37.5,-73.5 24.5,-107.5 -21.5,-60.5" style="fill:#794c3f;stroke:#794c3f;"></polygon><polygon stroke-linejoin="round" stroke-miterlimit="1" stroke-width="1" points="-21.5,-60.5 -76.5,-49.5 -76.5,55.5" style="fill:#8d5e49;stroke:#8d5e49;"></polygon><polygon stroke-linejoin="round" stroke-miterlimit="1" stroke-width="1" points="11.5,592.5 -76.5,498.5 -68.5,592.5" style="fill:#70443b;stroke:#70443b;"></polygon><polygon stroke-linejoin="round" stroke-miterlimit="1" stroke-width="1" points="24.5,-107.5 -76.5,-107.5 -21.5,-60.5" style="fill:#4d242a;stroke:#4d242a;"></polygon><polygon stroke-linejoin="round" stroke-miterlimit="1" stroke-width="1" points="-43.5,702.5 -68.5,592.5 -76.5,691.5" style="fill:#a87651;stroke:#a87651;"></polygon><polygon stroke-linejoin="round" stroke-miterlimit="1" stroke-width="1" points="8.5,604.5 -68.5,592.5 -43.5,702.5" style="fill:#4d242a;stroke:#4d242a;"></polygon><polygon stroke-linejoin="round" stroke-miterlimit="1" stroke-width="1" points="11.5,592.5 -68.5,592.5 8.5,604.5" style="fill:#4d242a;stroke:#4d242a;"></polygon><polygon stroke-linejoin="round" stroke-miterlimit="1" stroke-width="1" points="-59.5,978.5 -76.5,991.5 -76.5,1035.5" style="fill:#a77657;stroke:#a77657;"></polygon><polygon stroke-linejoin="round" stroke-miterlimit="1" stroke-width="1" points="-43.5,702.5 -76.5,691.5 -76.5,810.5" style="fill:#96674e;stroke:#96674e;"></polygon><polygon stroke-linejoin="round" stroke-miterlimit="1" stroke-width="1" points="-21.5,-60.5 -61.5,-66.5 -76.5,-49.5" style="fill:#4d242a;stroke:#4d242a;"></polygon><polygon stroke-linejoin="round" stroke-miterlimit="1" stroke-width="1" points="-21.5,-60.5 -76.5,-107.5 -61.5,-66.5" style="fill:#53292c;stroke:#53292c;"></polygon><polygon stroke-linejoin="round" stroke-miterlimit="1" stroke-width="1" points="-50.5,902.5 -76.5,991.5 -59.5,978.5" style="fill:#ae7c54;stroke:#ae7c54;"></polygon><polygon stroke-linejoin="round" stroke-miterlimit="1" stroke-width="1" points="-49.5,457.5 -76.5,343.5 -76.5,498.5" style="fill:#592f30;stroke:#592f30;"></polygon><polygon stroke-linejoin="round" stroke-miterlimit="1" stroke-width="1" points="-50.5,902.5 -76.5,810.5 -76.5,991.5" style="fill:#4d242a;stroke:#4d242a;"></polygon><polygon stroke-linejoin="round" stroke-miterlimit="1" stroke-width="1" points="-61.5,-66.5 -76.5,-107.5 -76.5,-49.5" style="fill:#875843;stroke:#875843;"></polygon><polygon stroke-linejoin="round" stroke-miterlimit="1" stroke-width="1" points="-68.5,592.5 -76.5,498.5 -76.5,691.5" style="fill:#eab16e;stroke:#eab16e;"></polygon></svg>