
      <svg xmlns="http://www.w3.org/2000/svg" version="1.1" width="1840" height="952" style="display: block;"><polygon stroke-linejoin="round" stroke-miterlimit="1" stroke-width="1" points="1557,1051 1135,1050 1054,1051" style="fill:#fffff3;stroke:#fffff3;"></polygon><polygon stroke-linejoin="round" stroke-miterlimit="1" stroke-width="1" points="1557,1051 1267,1027 1135,1050" style="fill:#fff4a4;stroke:#fff4a4;"></polygon><polygon stroke-linejoin="round" stroke-miterlimit="1" stroke-width="1" points="1866,1051 1718,1030 1557,1051" style="fill:#6a2b36;stroke:#6a2b36;"></polygon><polygon stroke-linejoin="round" stroke-miterlimit="1" stroke-width="1" points="1970,-102 1359,-102 1538,-90" style="fill:#6a2b36;stroke:#6a2b36;"></polygon><polygon stroke-linejoin="round" stroke-miterlimit="1" stroke-width="1" points="1970,-102 1538,-90 1718,19" style="fill:#a15e52;stroke:#a15e52;"></polygon><polygon stroke-linejoin="round" stroke-miterlimit="1" stroke-width="1" points="1987,869 1909,1015 1985,1051" style="fill:#7f3e41;stroke:#7f3e41;"></polygon><polygon stroke-linejoin="round" stroke-miterlimit="1" stroke-width="1" points="1996,-81 1970,-102 1915,-6" style="fill:#d28a6b;stroke:#d28a6b;"></polygon><polygon stroke-linejoin="round" stroke-miterlimit="1" stroke-width="1" points="1996,92 1915,-6 1855,40" style="fill:#a76355;stroke:#a76355;"></polygon><polygon stroke-linejoin="round" stroke-miterlimit="1" stroke-width="1" points="1996,92 1855,40 1885,138" style="fill:#904e4a;stroke:#904e4a;"></polygon><polygon stroke-linejoin="round" stroke-miterlimit="1" stroke-width="1" points="1996,92 1996,-81 1915,-6" style="fill:#6a2b36;stroke:#6a2b36;"></polygon><polygon stroke-linejoin="round" stroke-miterlimit="1" stroke-width="1" points="1996,719 1845,671 1996,731" style="fill:#c37d63;stroke:#c37d63;"></polygon><polygon stroke-linejoin="round" stroke-miterlimit="1" stroke-width="1" points="1996,794 1996,731 1845,671" style="fill:#834243;stroke:#834243;"></polygon><polygon stroke-linejoin="round" stroke-miterlimit="1" stroke-width="1" points="1996,794 1845,671 1987,869" style="fill:#a56154;stroke:#a56154;"></polygon><polygon stroke-linejoin="round" stroke-miterlimit="1" stroke-width="1" points="1996,169 1996,92 1885,138" style="fill:#c37d63;stroke:#c37d63;"></polygon><polygon stroke-linejoin="round" stroke-miterlimit="1" stroke-width="1" points="1996,169 1885,138 1893,342" style="fill:#6a2b36;stroke:#6a2b36;"></polygon><polygon stroke-linejoin="round" stroke-miterlimit="1" stroke-width="1" points="1996,531 1845,671 1996,719" style="fill:#884746;stroke:#884746;"></polygon><polygon stroke-linejoin="round" stroke-miterlimit="1" stroke-width="1" points="1996,531 1856,546 1845,671" style="fill:#9a584f;stroke:#9a584f;"></polygon><polygon stroke-linejoin="round" stroke-miterlimit="1" stroke-width="1" points="1996,1051 1996,794 1987,869" style="fill:#8b4a47;stroke:#8b4a47;"></polygon><polygon stroke-linejoin="round" stroke-miterlimit="1" stroke-width="1" points="1996,1051 1987,869 1985,1051" style="fill:#ffdf99;stroke:#ffdf99;"></polygon><polygon stroke-linejoin="round" stroke-miterlimit="1" stroke-width="1" points="1996,475 1856,546 1996,531" style="fill:#c57e64;stroke:#c57e64;"></polygon><polygon stroke-linejoin="round" stroke-miterlimit="1" stroke-width="1" points="1996,475 1893,342 1856,546" style="fill:#7e3e41;stroke:#7e3e41;"></polygon><polygon stroke-linejoin="round" stroke-miterlimit="1" stroke-width="1" points="1996,475 1996,169 1893,342" style="fill:#a66355;stroke:#a66355;"></polygon><polygon stroke-linejoin="round" stroke-miterlimit="1" stroke-width="1" points="1996,-102 1970,-102 1996,-81" style="fill:#ffffdb;stroke:#ffffdb;"></polygon><polygon stroke-linejoin="round" stroke-miterlimit="1" stroke-width="1" points="1985,1051 1909,1015 1913,1051" style="fill:#faaf7e;stroke:#faaf7e;"></polygon><polygon stroke-linejoin="round" stroke-miterlimit="1" stroke-width="1" points="1987,869 1756,684 1909,1015" style="fill:#9b584f;stroke:#9b584f;"></polygon><polygon stroke-linejoin="round" stroke-miterlimit="1" stroke-width="1" points="1987,869 1845,671 1756,684" style="fill:#7d3c40;stroke:#7d3c40;"></polygon><polygon stroke-linejoin="round" stroke-miterlimit="1" stroke-width="1" points="1909,1015 1756,684 1718,1030" style="fill:#834243;stroke:#834243;"></polygon><polygon stroke-linejoin="round" stroke-miterlimit="1" stroke-width="1" points="1893,342 1885,138 1821,155" style="fill:#6e2f38;stroke:#6e2f38;"></polygon><polygon stroke-linejoin="round" stroke-miterlimit="1" stroke-width="1" points="1970,-102 1718,19 1915,-6" style="fill:#be7861;stroke:#be7861;"></polygon><polygon stroke-linejoin="round" stroke-miterlimit="1" stroke-width="1" points="1557,1051 1398,1018 1267,1027" style="fill:#ffbd86;stroke:#ffbd86;"></polygon><polygon stroke-linejoin="round" stroke-miterlimit="1" stroke-width="1" points="1893,342 1740,549 1856,546" style="fill:#904e49;stroke:#904e49;"></polygon><polygon stroke-linejoin="round" stroke-miterlimit="1" stroke-width="1" points="1909,1015 1718,1030 1866,1051" style="fill:#6a2b36;stroke:#6a2b36;"></polygon><polygon stroke-linejoin="round" stroke-miterlimit="1" stroke-width="1" points="1913,1051 1909,1015 1866,1051" style="fill:#ffffc4;stroke:#ffffc4;"></polygon><polygon stroke-linejoin="round" stroke-miterlimit="1" stroke-width="1" points="1915,-6 1718,19 1855,40" style="fill:#8d4b48;stroke:#8d4b48;"></polygon><polygon stroke-linejoin="round" stroke-miterlimit="1" stroke-width="1" points="1756,684 1560,846 1718,1030" style="fill:#b06b59;stroke:#b06b59;"></polygon><polygon stroke-linejoin="round" stroke-miterlimit="1" stroke-width="1" points="1885,138 1855,40 1821,155" style="fill:#6a2b36;stroke:#6a2b36;"></polygon><polygon stroke-linejoin="round" stroke-miterlimit="1" stroke-width="1" points="1893,342 1821,155 1632,271" style="fill:#76363d;stroke:#76363d;"></polygon><polygon stroke-linejoin="round" stroke-miterlimit="1" stroke-width="1" points="1893,342 1632,271 1740,549" style="fill:#ba745e;stroke:#ba745e;"></polygon><polygon stroke-linejoin="round" stroke-miterlimit="1" stroke-width="1" points="1845,671 1740,549 1756,684" style="fill:#834243;stroke:#834243;"></polygon><polygon stroke-linejoin="round" stroke-miterlimit="1" stroke-width="1" points="1856,546 1740,549 1845,671" style="fill:#894846;stroke:#894846;"></polygon><polygon stroke-linejoin="round" stroke-miterlimit="1" stroke-width="1" points="1855,40 1718,19 1821,155" style="fill:#8e4d49;stroke:#8e4d49;"></polygon><polygon stroke-linejoin="round" stroke-miterlimit="1" stroke-width="1" points="1821,155 1647,162 1632,271" style="fill:#b26d5b;stroke:#b26d5b;"></polygon><polygon stroke-linejoin="round" stroke-miterlimit="1" stroke-width="1" points="1821,155 1718,19 1647,162" style="fill:#9a574f;stroke:#9a574f;"></polygon><polygon stroke-linejoin="round" stroke-miterlimit="1" stroke-width="1" points="1557,1051 1452,1022 1398,1018" style="fill:#ffffb7;stroke:#ffffb7;"></polygon><polygon stroke-linejoin="round" stroke-miterlimit="1" stroke-width="1" points="1740,549 1632,271 1407,438" style="fill:#f7ac7d;stroke:#f7ac7d;"></polygon><polygon stroke-linejoin="round" stroke-miterlimit="1" stroke-width="1" points="1756,684 1665,643 1560,846" style="fill:#854444;stroke:#854444;"></polygon><polygon stroke-linejoin="round" stroke-miterlimit="1" stroke-width="1" points="1756,684 1740,549 1665,643" style="fill:#814042;stroke:#814042;"></polygon><polygon stroke-linejoin="round" stroke-miterlimit="1" stroke-width="1" points="1560,846 1531,870 1557,1051" style="fill:#95524c;stroke:#95524c;"></polygon><polygon stroke-linejoin="round" stroke-miterlimit="1" stroke-width="1" points="1718,1030 1560,846 1557,1051" style="fill:#a86456;stroke:#a86456;"></polygon><polygon stroke-linejoin="round" stroke-miterlimit="1" stroke-width="1" points="1740,549 1407,438 1665,643" style="fill:#ffbb85;stroke:#ffbb85;"></polygon><polygon stroke-linejoin="round" stroke-miterlimit="1" stroke-width="1" points="1718,19 1597,158 1647,162" style="fill:#b06b59;stroke:#b06b59;"></polygon><polygon stroke-linejoin="round" stroke-miterlimit="1" stroke-width="1" points="1718,19 1513,92 1597,158" style="fill:#864544;stroke:#864544;"></polygon><polygon stroke-linejoin="round" stroke-miterlimit="1" stroke-width="1" points="1718,19 1538,-90 1513,92" style="fill:#aa6657;stroke:#aa6657;"></polygon><polygon stroke-linejoin="round" stroke-miterlimit="1" stroke-width="1" points="1647,162 1597,158 1632,271" style="fill:#6a2b36;stroke:#6a2b36;"></polygon><polygon stroke-linejoin="round" stroke-miterlimit="1" stroke-width="1" points="1665,643 1337,582 1560,846" style="fill:#894846;stroke:#894846;"></polygon><polygon stroke-linejoin="round" stroke-miterlimit="1" stroke-width="1" points="1665,643 1407,438 1337,582" style="fill:#b06b59;stroke:#b06b59;"></polygon><polygon stroke-linejoin="round" stroke-miterlimit="1" stroke-width="1" points="1632,271 1435,235 1407,438" style="fill:#9e5a50;stroke:#9e5a50;"></polygon><polygon stroke-linejoin="round" stroke-miterlimit="1" stroke-width="1" points="1538,-90 1450,-7 1513,92" style="fill:#904e4a;stroke:#904e4a;"></polygon><polygon stroke-linejoin="round" stroke-miterlimit="1" stroke-width="1" points="1632,271 1597,158 1435,235" style="fill:#bc765f;stroke:#bc765f;"></polygon><polygon stroke-linejoin="round" stroke-miterlimit="1" stroke-width="1" points="1557,1051 1531,870 1452,1022" style="fill:#ad6858;stroke:#ad6858;"></polygon><polygon stroke-linejoin="round" stroke-miterlimit="1" stroke-width="1" points="1560,846 1337,582 1531,870" style="fill:#c78065;stroke:#c78065;"></polygon><polygon stroke-linejoin="round" stroke-miterlimit="1" stroke-width="1" points="1597,158 1513,92 1435,235" style="fill:#aa6656;stroke:#aa6656;"></polygon><polygon stroke-linejoin="round" stroke-miterlimit="1" stroke-width="1" points="1407,438 1344,494 1337,582" style="fill:#b26d5a;stroke:#b26d5a;"></polygon><polygon stroke-linejoin="round" stroke-miterlimit="1" stroke-width="1" points="1531,870 1337,582 1268,914" style="fill:#8e4c49;stroke:#8e4c49;"></polygon><polygon stroke-linejoin="round" stroke-miterlimit="1" stroke-width="1" points="1531,870 1398,1018 1452,1022" style="fill:#ce8769;stroke:#ce8769;"></polygon><polygon stroke-linejoin="round" stroke-miterlimit="1" stroke-width="1" points="1538,-90 1359,-102 1450,-7" style="fill:#b26d5a;stroke:#b26d5a;"></polygon><polygon stroke-linejoin="round" stroke-miterlimit="1" stroke-width="1" points="1531,870 1268,914 1398,1018" style="fill:#6a2b36;stroke:#6a2b36;"></polygon><polygon stroke-linejoin="round" stroke-miterlimit="1" stroke-width="1" points="1513,92 1450,-7 1408,25" style="fill:#ffb883;stroke:#ffb883;"></polygon><polygon stroke-linejoin="round" stroke-miterlimit="1" stroke-width="1" points="1513,92 1408,25 1435,235" style="fill:#b36e5b;stroke:#b36e5b;"></polygon><polygon stroke-linejoin="round" stroke-miterlimit="1" stroke-width="1" points="1435,235 1259,443 1407,438" style="fill:#98554d;stroke:#98554d;"></polygon><polygon stroke-linejoin="round" stroke-miterlimit="1" stroke-width="1" points="1435,235 1408,25 1299,98" style="fill:#824243;stroke:#824243;"></polygon><polygon stroke-linejoin="round" stroke-miterlimit="1" stroke-width="1" points="1450,-7 1359,-102 1408,25" style="fill:#c57e64;stroke:#c57e64;"></polygon><polygon stroke-linejoin="round" stroke-miterlimit="1" stroke-width="1" points="1337,582 1141,853 1268,914" style="fill:#9e5a50;stroke:#9e5a50;"></polygon><polygon stroke-linejoin="round" stroke-miterlimit="1" stroke-width="1" points="1435,235 1299,98 1217,129" style="fill:#6a2b36;stroke:#6a2b36;"></polygon><polygon stroke-linejoin="round" stroke-miterlimit="1" stroke-width="1" points="1435,235 1217,129 1259,443" style="fill:#8b4947;stroke:#8b4947;"></polygon><polygon stroke-linejoin="round" stroke-miterlimit="1" stroke-width="1" points="675,-102 190,-102 395,-73" style="fill:#70313a;stroke:#70313a;"></polygon><polygon stroke-linejoin="round" stroke-miterlimit="1" stroke-width="1" points="1337,582 1099,652 1141,853" style="fill:#824243;stroke:#824243;"></polygon><polygon stroke-linejoin="round" stroke-miterlimit="1" stroke-width="1" points="1398,1018 1268,914 1267,1027" style="fill:#df9671;stroke:#df9671;"></polygon><polygon stroke-linejoin="round" stroke-miterlimit="1" stroke-width="1" points="1407,438 1259,443 1344,494" style="fill:#92504b;stroke:#92504b;"></polygon><polygon stroke-linejoin="round" stroke-miterlimit="1" stroke-width="1" points="1408,25 1359,-102 1327,-102" style="fill:#ffea9f;stroke:#ffea9f;"></polygon><polygon stroke-linejoin="round" stroke-miterlimit="1" stroke-width="1" points="1408,25 1327,-102 1299,98" style="fill:#b5705c;stroke:#b5705c;"></polygon><polygon stroke-linejoin="round" stroke-miterlimit="1" stroke-width="1" points="1327,-102 1217,129 1299,98" style="fill:#aa6556;stroke:#aa6556;"></polygon><polygon stroke-linejoin="round" stroke-miterlimit="1" stroke-width="1" points="1344,494 1259,443 1337,582" style="fill:#97554d;stroke:#97554d;"></polygon><polygon stroke-linejoin="round" stroke-miterlimit="1" stroke-width="1" points="1327,-102 1039,57 1217,129" style="fill:#99564e;stroke:#99564e;"></polygon><polygon stroke-linejoin="round" stroke-miterlimit="1" stroke-width="1" points="1337,582 1259,443 1111,551" style="fill:#8e4d49;stroke:#8e4d49;"></polygon><polygon stroke-linejoin="round" stroke-miterlimit="1" stroke-width="1" points="1337,582 1111,551 1099,652" style="fill:#824243;stroke:#824243;"></polygon><polygon stroke-linejoin="round" stroke-miterlimit="1" stroke-width="1" points="1327,-102 921,-102 1039,57" style="fill:#79393e;stroke:#79393e;"></polygon><polygon stroke-linejoin="round" stroke-miterlimit="1" stroke-width="1" points="1259,443 1217,129 957,359" style="fill:#94524c;stroke:#94524c;"></polygon><polygon stroke-linejoin="round" stroke-miterlimit="1" stroke-width="1" points="1141,853 1099,652 1051,770" style="fill:#9a574f;stroke:#9a574f;"></polygon><polygon stroke-linejoin="round" stroke-miterlimit="1" stroke-width="1" points="1268,914 1135,1050 1267,1027" style="fill:#73333b;stroke:#73333b;"></polygon><polygon stroke-linejoin="round" stroke-miterlimit="1" stroke-width="1" points="1268,914 1141,853 1135,1050" style="fill:#95534c;stroke:#95534c;"></polygon><polygon stroke-linejoin="round" stroke-miterlimit="1" stroke-width="1" points="1259,443 957,359 1111,551" style="fill:#94524c;stroke:#94524c;"></polygon><polygon stroke-linejoin="round" stroke-miterlimit="1" stroke-width="1" points="1111,551 1089,628 1099,652" style="fill:#aa6657;stroke:#aa6657;"></polygon><polygon stroke-linejoin="round" stroke-miterlimit="1" stroke-width="1" points="1217,129 1039,57 957,359" style="fill:#824142;stroke:#824142;"></polygon><polygon stroke-linejoin="round" stroke-miterlimit="1" stroke-width="1" points="1141,853 918,846 1054,1051" style="fill:#77373d;stroke:#77373d;"></polygon><polygon stroke-linejoin="round" stroke-miterlimit="1" stroke-width="1" points="1141,853 1051,770 918,846" style="fill:#b06c5a;stroke:#b06c5a;"></polygon><polygon stroke-linejoin="round" stroke-miterlimit="1" stroke-width="1" points="1141,853 1054,1051 1135,1050" style="fill:#ab6757;stroke:#ab6757;"></polygon><polygon stroke-linejoin="round" stroke-miterlimit="1" stroke-width="1" points="1111,551 957,359 945,588" style="fill:#7c3c40;stroke:#7c3c40;"></polygon><polygon stroke-linejoin="round" stroke-miterlimit="1" stroke-width="1" points="1039,57 813,287 957,359" style="fill:#8f4e49;stroke:#8f4e49;"></polygon><polygon stroke-linejoin="round" stroke-miterlimit="1" stroke-width="1" points="1111,551 945,588 1089,628" style="fill:#7f3f41;stroke:#7f3f41;"></polygon><polygon stroke-linejoin="round" stroke-miterlimit="1" stroke-width="1" points="1054,1051 918,846 921,1051" style="fill:#8a4947;stroke:#8a4947;"></polygon><polygon stroke-linejoin="round" stroke-miterlimit="1" stroke-width="1" points="1089,628 945,588 1051,770" style="fill:#7e3e41;stroke:#7e3e41;"></polygon><polygon stroke-linejoin="round" stroke-miterlimit="1" stroke-width="1" points="1099,652 1089,628 1051,770" style="fill:#ffe099;stroke:#ffe099;"></polygon><polygon stroke-linejoin="round" stroke-miterlimit="1" stroke-width="1" points="957,359 900,383 945,588" style="fill:#854444;stroke:#854444;"></polygon><polygon stroke-linejoin="round" stroke-miterlimit="1" stroke-width="1" points="1051,770 927,795 918,846" style="fill:#a15e52;stroke:#a15e52;"></polygon><polygon stroke-linejoin="round" stroke-miterlimit="1" stroke-width="1" points="1051,770 945,588 927,795" style="fill:#92504b;stroke:#92504b;"></polygon><polygon stroke-linejoin="round" stroke-miterlimit="1" stroke-width="1" points="1039,57 702,109 813,287" style="fill:#8e4c49;stroke:#8e4c49;"></polygon><polygon stroke-linejoin="round" stroke-miterlimit="1" stroke-width="1" points="1039,57 921,-102 702,109" style="fill:#793a3e;stroke:#793a3e;"></polygon><polygon stroke-linejoin="round" stroke-miterlimit="1" stroke-width="1" points="921,1051 918,846 811,924" style="fill:#7a3a3f;stroke:#7a3a3f;"></polygon><polygon stroke-linejoin="round" stroke-miterlimit="1" stroke-width="1" points="921,-102 799,-102 702,109" style="fill:#7e3e41;stroke:#7e3e41;"></polygon><polygon stroke-linejoin="round" stroke-miterlimit="1" stroke-width="1" points="945,588 785,659 927,795" style="fill:#9c5950;stroke:#9c5950;"></polygon><polygon stroke-linejoin="round" stroke-miterlimit="1" stroke-width="1" points="945,588 900,383 785,659" style="fill:#8d4b48;stroke:#8d4b48;"></polygon><polygon stroke-linejoin="round" stroke-miterlimit="1" stroke-width="1" points="957,359 813,287 900,383" style="fill:#a35f53;stroke:#a35f53;"></polygon><polygon stroke-linejoin="round" stroke-miterlimit="1" stroke-width="1" points="900,383 589,396 785,659" style="fill:#874645;stroke:#874645;"></polygon><polygon stroke-linejoin="round" stroke-miterlimit="1" stroke-width="1" points="927,795 811,924 918,846" style="fill:#a46054;stroke:#a46054;"></polygon><polygon stroke-linejoin="round" stroke-miterlimit="1" stroke-width="1" points="927,795 680,844 811,924" style="fill:#824143;stroke:#824143;"></polygon><polygon stroke-linejoin="round" stroke-miterlimit="1" stroke-width="1" points="927,795 785,659 680,844" style="fill:#6c2d38;stroke:#6c2d38;"></polygon><polygon stroke-linejoin="round" stroke-miterlimit="1" stroke-width="1" points="921,1051 811,924 654,1051" style="fill:#6c2d38;stroke:#6c2d38;"></polygon><polygon stroke-linejoin="round" stroke-miterlimit="1" stroke-width="1" points="785,659 589,396 573,568" style="fill:#804042;stroke:#804042;"></polygon><polygon stroke-linejoin="round" stroke-miterlimit="1" stroke-width="1" points="785,659 665,808 680,844" style="fill:#854444;stroke:#854444;"></polygon><polygon stroke-linejoin="round" stroke-miterlimit="1" stroke-width="1" points="799,-102 713,-84 702,109" style="fill:#c57f64;stroke:#c57f64;"></polygon><polygon stroke-linejoin="round" stroke-miterlimit="1" stroke-width="1" points="900,383 813,287 589,396" style="fill:#8f4e49;stroke:#8f4e49;"></polygon><polygon stroke-linejoin="round" stroke-miterlimit="1" stroke-width="1" points="713,-84 628,30 702,109" style="fill:#af6a59;stroke:#af6a59;"></polygon><polygon stroke-linejoin="round" stroke-miterlimit="1" stroke-width="1" points="799,-102 675,-102 713,-84" style="fill:#d68e6d;stroke:#d68e6d;"></polygon><polygon stroke-linejoin="round" stroke-miterlimit="1" stroke-width="1" points="811,924 680,844 654,1051" style="fill:#8b4947;stroke:#8b4947;"></polygon><polygon stroke-linejoin="round" stroke-miterlimit="1" stroke-width="1" points="813,287 702,109 589,396" style="fill:#95524c;stroke:#95524c;"></polygon><polygon stroke-linejoin="round" stroke-miterlimit="1" stroke-width="1" points="702,109 558,139 589,396" style="fill:#9d5a50;stroke:#9d5a50;"></polygon><polygon stroke-linejoin="round" stroke-miterlimit="1" stroke-width="1" points="785,659 616,702 665,808" style="fill:#75363c;stroke:#75363c;"></polygon><polygon stroke-linejoin="round" stroke-miterlimit="1" stroke-width="1" points="785,659 573,568 616,702" style="fill:#ba745e;stroke:#ba745e;"></polygon><polygon stroke-linejoin="round" stroke-miterlimit="1" stroke-width="1" points="589,396 558,139 488,338" style="fill:#ce8769;stroke:#ce8769;"></polygon><polygon stroke-linejoin="round" stroke-miterlimit="1" stroke-width="1" points="665,808 616,702 607,760" style="fill:#6a2b36;stroke:#6a2b36;"></polygon><polygon stroke-linejoin="round" stroke-miterlimit="1" stroke-width="1" points="675,-102 395,-73 603,-57" style="fill:#e79d75;stroke:#e79d75;"></polygon><polygon stroke-linejoin="round" stroke-miterlimit="1" stroke-width="1" points="680,844 660,830 654,1051" style="fill:#ffbc86;stroke:#ffbc86;"></polygon><polygon stroke-linejoin="round" stroke-miterlimit="1" stroke-width="1" points="713,-84 675,-102 603,-57" style="fill:#cb8367;stroke:#cb8367;"></polygon><polygon stroke-linejoin="round" stroke-miterlimit="1" stroke-width="1" points="713,-84 603,-57 628,30" style="fill:#bf7961;stroke:#bf7961;"></polygon><polygon stroke-linejoin="round" stroke-miterlimit="1" stroke-width="1" points="654,1051 431,922 167,1051" style="fill:#9d5a50;stroke:#9d5a50;"></polygon><polygon stroke-linejoin="round" stroke-miterlimit="1" stroke-width="1" points="660,830 431,922 654,1051" style="fill:#824142;stroke:#824142;"></polygon><polygon stroke-linejoin="round" stroke-miterlimit="1" stroke-width="1" points="702,109 628,30 558,139" style="fill:#b6715d;stroke:#b6715d;"></polygon><polygon stroke-linejoin="round" stroke-miterlimit="1" stroke-width="1" points="558,139 453,256 488,338" style="fill:#cb8467;stroke:#cb8467;"></polygon><polygon stroke-linejoin="round" stroke-miterlimit="1" stroke-width="1" points="680,844 665,808 660,830" style="fill:#b6715d;stroke:#b6715d;"></polygon><polygon stroke-linejoin="round" stroke-miterlimit="1" stroke-width="1" points="628,30 603,-57 584,2" style="fill:#d68e6d;stroke:#d68e6d;"></polygon><polygon stroke-linejoin="round" stroke-miterlimit="1" stroke-width="1" points="660,830 607,760 424,829" style="fill:#6f3039;stroke:#6f3039;"></polygon><polygon stroke-linejoin="round" stroke-miterlimit="1" stroke-width="1" points="660,830 424,829 431,922" style="fill:#834243;stroke:#834243;"></polygon><polygon stroke-linejoin="round" stroke-miterlimit="1" stroke-width="1" points="665,808 607,760 660,830" style="fill:#9e5b50;stroke:#9e5b50;"></polygon><polygon stroke-linejoin="round" stroke-miterlimit="1" stroke-width="1" points="603,-57 395,-73 478,-22" style="fill:#95524c;stroke:#95524c;"></polygon><polygon stroke-linejoin="round" stroke-miterlimit="1" stroke-width="1" points="628,30 584,2 558,139" style="fill:#99564e;stroke:#99564e;"></polygon><polygon stroke-linejoin="round" stroke-miterlimit="1" stroke-width="1" points="616,702 398,631 607,760" style="fill:#844344;stroke:#844344;"></polygon><polygon stroke-linejoin="round" stroke-miterlimit="1" stroke-width="1" points="616,702 573,568 398,631" style="fill:#92504b;stroke:#92504b;"></polygon><polygon stroke-linejoin="round" stroke-miterlimit="1" stroke-width="1" points="573,568 488,338 340,490" style="fill:#b06b59;stroke:#b06b59;"></polygon><polygon stroke-linejoin="round" stroke-miterlimit="1" stroke-width="1" points="589,396 488,338 573,568" style="fill:#9f5b51;stroke:#9f5b51;"></polygon><polygon stroke-linejoin="round" stroke-miterlimit="1" stroke-width="1" points="607,760 398,631 424,829" style="fill:#a76355;stroke:#a76355;"></polygon><polygon stroke-linejoin="round" stroke-miterlimit="1" stroke-width="1" points="584,2 478,-22 558,139" style="fill:#b6705c;stroke:#b6705c;"></polygon><polygon stroke-linejoin="round" stroke-miterlimit="1" stroke-width="1" points="603,-57 478,-22 584,2" style="fill:#b16c5a;stroke:#b16c5a;"></polygon><polygon stroke-linejoin="round" stroke-miterlimit="1" stroke-width="1" points="424,829 398,631 370,781" style="fill:#7b3b3f;stroke:#7b3b3f;"></polygon><polygon stroke-linejoin="round" stroke-miterlimit="1" stroke-width="1" points="573,568 340,490 398,631" style="fill:#874645;stroke:#874645;"></polygon><polygon stroke-linejoin="round" stroke-miterlimit="1" stroke-width="1" points="558,139 478,-22 392,-7" style="fill:#b16c5a;stroke:#b16c5a;"></polygon><polygon stroke-linejoin="round" stroke-miterlimit="1" stroke-width="1" points="558,139 392,-7 453,256" style="fill:#c17b62;stroke:#c17b62;"></polygon><polygon stroke-linejoin="round" stroke-miterlimit="1" stroke-width="1" points="398,631 340,490 364,614" style="fill:#b06b59;stroke:#b06b59;"></polygon><polygon stroke-linejoin="round" stroke-miterlimit="1" stroke-width="1" points="453,256 392,-7 189,116" style="fill:#fff8a6;stroke:#fff8a6;"></polygon><polygon stroke-linejoin="round" stroke-miterlimit="1" stroke-width="1" points="453,256 189,116 198,223" style="fill:#e49a73;stroke:#e49a73;"></polygon><polygon stroke-linejoin="round" stroke-miterlimit="1" stroke-width="1" points="488,338 453,256 340,490" style="fill:#98564e;stroke:#98564e;"></polygon><polygon stroke-linejoin="round" stroke-miterlimit="1" stroke-width="1" points="478,-22 395,-73 392,-7" style="fill:#ab6757;stroke:#ab6757;"></polygon><polygon stroke-linejoin="round" stroke-miterlimit="1" stroke-width="1" points="395,-73 190,-102 227,-73" style="fill:#d48c6c;stroke:#d48c6c;"></polygon><polygon stroke-linejoin="round" stroke-miterlimit="1" stroke-width="1" points="453,256 198,223 340,490" style="fill:#a86456;stroke:#a86456;"></polygon><polygon stroke-linejoin="round" stroke-miterlimit="1" stroke-width="1" points="424,829 370,781 285,796" style="fill:#6e2f38;stroke:#6e2f38;"></polygon><polygon stroke-linejoin="round" stroke-miterlimit="1" stroke-width="1" points="431,922 424,829 285,796" style="fill:#6b2c37;stroke:#6b2c37;"></polygon><polygon stroke-linejoin="round" stroke-miterlimit="1" stroke-width="1" points="431,922 285,796 167,1051" style="fill:#77373d;stroke:#77373d;"></polygon><polygon stroke-linejoin="round" stroke-miterlimit="1" stroke-width="1" points="395,-73 227,-73 349,-45" style="fill:#6a2b36;stroke:#6a2b36;"></polygon><polygon stroke-linejoin="round" stroke-miterlimit="1" stroke-width="1" points="398,631 364,614 370,781" style="fill:#d38b6b;stroke:#d38b6b;"></polygon><polygon stroke-linejoin="round" stroke-miterlimit="1" stroke-width="1" points="285,796 268,628 221,690" style="fill:#884645;stroke:#884645;"></polygon><polygon stroke-linejoin="round" stroke-miterlimit="1" stroke-width="1" points="370,781 364,614 268,628" style="fill:#7e3e41;stroke:#7e3e41;"></polygon><polygon stroke-linejoin="round" stroke-miterlimit="1" stroke-width="1" points="370,781 268,628 285,796" style="fill:#6a2b36;stroke:#6a2b36;"></polygon><polygon stroke-linejoin="round" stroke-miterlimit="1" stroke-width="1" points="392,-7 349,-45 189,116" style="fill:#e29973;stroke:#e29973;"></polygon><polygon stroke-linejoin="round" stroke-miterlimit="1" stroke-width="1" points="395,-73 349,-45 392,-7" style="fill:#d28a6a;stroke:#d28a6a;"></polygon><polygon stroke-linejoin="round" stroke-miterlimit="1" stroke-width="1" points="340,490 198,223 87,394" style="fill:#a25f53;stroke:#a25f53;"></polygon><polygon stroke-linejoin="round" stroke-miterlimit="1" stroke-width="1" points="349,-45 227,-73 189,116" style="fill:#ffb884;stroke:#ffb884;"></polygon><polygon stroke-linejoin="round" stroke-miterlimit="1" stroke-width="1" points="364,614 340,490 268,628" style="fill:#864545;stroke:#864545;"></polygon><polygon stroke-linejoin="round" stroke-miterlimit="1" stroke-width="1" points="340,490 87,394 120,514" style="fill:#a05d52;stroke:#a05d52;"></polygon><polygon stroke-linejoin="round" stroke-miterlimit="1" stroke-width="1" points="340,490 120,514 268,628" style="fill:#6a2b36;stroke:#6a2b36;"></polygon><polygon stroke-linejoin="round" stroke-miterlimit="1" stroke-width="1" points="285,796 221,690 9,999" style="fill:#9b584f;stroke:#9b584f;"></polygon><polygon stroke-linejoin="round" stroke-miterlimit="1" stroke-width="1" points="285,796 9,999 167,1051" style="fill:#874645;stroke:#874645;"></polygon><polygon stroke-linejoin="round" stroke-miterlimit="1" stroke-width="1" points="167,1051 9,999 -153,1051" style="fill:#6a2b36;stroke:#6a2b36;"></polygon><polygon stroke-linejoin="round" stroke-miterlimit="1" stroke-width="1" points="268,628 120,514 221,690" style="fill:#75363c;stroke:#75363c;"></polygon><polygon stroke-linejoin="round" stroke-miterlimit="1" stroke-width="1" points="189,116 15,-102 51,155" style="fill:#b46e5b;stroke:#b46e5b;"></polygon><polygon stroke-linejoin="round" stroke-miterlimit="1" stroke-width="1" points="190,-102 15,-102 189,116" style="fill:#75363c;stroke:#75363c;"></polygon><polygon stroke-linejoin="round" stroke-miterlimit="1" stroke-width="1" points="221,690 -130,885 9,999" style="fill:#77383d;stroke:#77383d;"></polygon><polygon stroke-linejoin="round" stroke-miterlimit="1" stroke-width="1" points="221,690 -153,790 -130,885" style="fill:#803f41;stroke:#803f41;"></polygon><polygon stroke-linejoin="round" stroke-miterlimit="1" stroke-width="1" points="227,-73 190,-102 189,116" style="fill:#844344;stroke:#844344;"></polygon><polygon stroke-linejoin="round" stroke-miterlimit="1" stroke-width="1" points="221,690 120,514 -153,674" style="fill:#914f4a;stroke:#914f4a;"></polygon><polygon stroke-linejoin="round" stroke-miterlimit="1" stroke-width="1" points="221,690 -153,674 -153,790" style="fill:#6a2b36;stroke:#6a2b36;"></polygon><polygon stroke-linejoin="round" stroke-miterlimit="1" stroke-width="1" points="120,514 -153,667 -153,674" style="fill:#98554e;stroke:#98554e;"></polygon><polygon stroke-linejoin="round" stroke-miterlimit="1" stroke-width="1" points="198,223 28,201 87,394" style="fill:#884746;stroke:#884746;"></polygon><polygon stroke-linejoin="round" stroke-miterlimit="1" stroke-width="1" points="198,223 189,116 51,155" style="fill:#bf7961;stroke:#bf7961;"></polygon><polygon stroke-linejoin="round" stroke-miterlimit="1" stroke-width="1" points="198,223 51,155 28,201" style="fill:#ce8668;stroke:#ce8668;"></polygon><polygon stroke-linejoin="round" stroke-miterlimit="1" stroke-width="1" points="120,514 -127,559 -153,667" style="fill:#7a3a3f;stroke:#7a3a3f;"></polygon><polygon stroke-linejoin="round" stroke-miterlimit="1" stroke-width="1" points="51,155 15,-102 -88,-12" style="fill:#854444;stroke:#854444;"></polygon><polygon stroke-linejoin="round" stroke-miterlimit="1" stroke-width="1" points="87,394 28,201 -33,267" style="fill:#914f4a;stroke:#914f4a;"></polygon><polygon stroke-linejoin="round" stroke-miterlimit="1" stroke-width="1" points="120,514 87,394 -127,559" style="fill:#8a4947;stroke:#8a4947;"></polygon><polygon stroke-linejoin="round" stroke-miterlimit="1" stroke-width="1" points="87,394 -33,267 -153,475" style="fill:#bc7660;stroke:#bc7660;"></polygon><polygon stroke-linejoin="round" stroke-miterlimit="1" stroke-width="1" points="87,394 -153,475 -127,559" style="fill:#70313a;stroke:#70313a;"></polygon><polygon stroke-linejoin="round" stroke-miterlimit="1" stroke-width="1" points="51,155 -153,74 28,201" style="fill:#c27b62;stroke:#c27b62;"></polygon><polygon stroke-linejoin="round" stroke-miterlimit="1" stroke-width="1" points="51,155 -88,-12 -153,74" style="fill:#7a3a3f;stroke:#7a3a3f;"></polygon><polygon stroke-linejoin="round" stroke-miterlimit="1" stroke-width="1" points="28,201 -153,202 -33,267" style="fill:#9f5c51;stroke:#9f5c51;"></polygon><polygon stroke-linejoin="round" stroke-miterlimit="1" stroke-width="1" points="28,201 -153,74 -153,202" style="fill:#97554d;stroke:#97554d;"></polygon><polygon stroke-linejoin="round" stroke-miterlimit="1" stroke-width="1" points="9,999 -130,885 -153,937" style="fill:#6a2b36;stroke:#6a2b36;"></polygon><polygon stroke-linejoin="round" stroke-miterlimit="1" stroke-width="1" points="15,-102 -153,-102 -88,-12" style="fill:#c27c63;stroke:#c27c63;"></polygon><polygon stroke-linejoin="round" stroke-miterlimit="1" stroke-width="1" points="9,999 -153,937 -153,1051" style="fill:#6a2b36;stroke:#6a2b36;"></polygon><polygon stroke-linejoin="round" stroke-miterlimit="1" stroke-width="1" points="-88,-12 -153,39 -153,74" style="fill:#6a2b36;stroke:#6a2b36;"></polygon><polygon stroke-linejoin="round" stroke-miterlimit="1" stroke-width="1" points="-33,267 -153,202 -153,475" style="fill:#6a2b36;stroke:#6a2b36;"></polygon><polygon stroke-linejoin="round" stroke-miterlimit="1" stroke-width="1" points="-88,-12 -153,-102 -153,39" style="fill:#73343b;stroke:#73343b;"></polygon><polygon stroke-linejoin="round" stroke-miterlimit="1" stroke-width="1" points="-127,559 -153,475 -153,667" style="fill:#7b3b3f;stroke:#7b3b3f;"></polygon><polygon stroke-linejoin="round" stroke-miterlimit="1" stroke-width="1" points="-130,885 -153,790 -153,937" style="fill:#6a2b36;stroke:#6a2b36;"></polygon></svg>